<?xml version="1.0" encoding="UTF-8"?>
<svg width="48px" height="31px" viewBox="0 0 48 31" version="1.1" xmlns="http://www.w3.org/2000/svg" xmlns:xlink="http://www.w3.org/1999/xlink">
    <!-- Generator: Sketch 63.1 (92452) - https://sketch.com -->
    <title>Group 21</title>
    <desc>Created with Sketch.</desc>
    <defs>
        <polygon id="path-1" points="0.0979419355 0.155071849 16.8883118 0.155071849 16.8883118 12.9253123 0.0979419355 12.9253123"></polygon>
        <polygon id="path-3" points="0 0.0102913031 12.9373806 0.0102913031 12.9373806 13.9150846 0 13.9150846"></polygon>
    </defs>
    <g id="Page-1" stroke="none" stroke-width="1" fill="none" fill-rule="evenodd">
        <g id="iPhone-11-Copy-10" transform="translate(-36.000000, -255.000000)">
            <g id="Group-21" transform="translate(36.000000, 255.000000)">
                <g id="Group-3" transform="translate(31.000000, 18.000000)">
                    <mask id="mask-2" fill="white">
                        <use xlink:href="#path-1"></use>
                    </mask>
                    <g id="Clip-2"></g>
                    <path d="M16.8771247,12.9253123 L4.40716774,12.9253123 C4.40716774,11.7412438 4.36969462,10.5908329 4.41447957,9.44344932 C4.5320172,6.43546301 3.17713548,4.33551781 0.386027957,3.08769589 C0.279275269,3.03996986 0.183124731,2.96998356 0.0979419355,2.9195863 C1.01210323,1.01072329 2.79966237,0.60469589 4.65211398,0.348969863 C7.3754043,-0.027139726 10.0593935,0.0839835616 12.6050065,1.21907945 C15.4098237,2.4695726 16.966329,4.52410685 16.8853505,7.63288767 C16.8398344,9.3786274 16.8771247,11.1265041 16.8771247,12.9253123" id="Fill-1" fill="#FFFFFF" mask="url(#mask-2)"></path>
                </g>
                <g id="Group-6" transform="translate(0.000000, 17.000000)">
                    <mask id="mask-4" fill="white">
                        <use xlink:href="#path-3"></use>
                    </mask>
                    <g id="Clip-5"></g>
                    <path d="M0.049972,13.9150846 C0.049972,11.5731359 -0.0824546667,9.29221282 0.083772,7.03498205 C0.286225333,4.28739231 1.92075867,2.47762308 4.242732,1.30144359 C6.53454533,0.140520513 8.97663867,-0.113274359 11.4209853,0.0592128205 C11.4636253,1.05716154 11.356332,2.05959744 11.5875587,2.96977692 C11.8213853,3.88964872 12.3907853,4.71798205 12.8899853,5.74446923 C12.9492653,5.56121282 12.947532,5.64000769 12.9144253,5.6581359 C10.7103187,6.87757179 9.79563867,8.80616154 9.94418533,11.3509308 C9.99254533,12.1819564 9.95163867,13.0185462 9.95163867,13.9150846 L0.049972,13.9150846 Z" id="Fill-4" fill="#FFFFFF" mask="url(#mask-4)"></path>
                </g>
                <path d="M16.9998776,9.04520959 C16.9796583,12.3267936 14.3035037,14.9910448 11.0183089,15 C7.66981901,15.0092583 4.9753791,12.2746049 5.0001697,8.89197092 C5.02390539,5.62579829 7.74542156,2.97030362 11.0378249,3.00025083 C14.4009079,3.03124882 17.0206244,5.68726889 16.9998776,9.04520959" id="Fill-7" fill="#FFFFFF"></path>
                <path d="M43,11.4864538 C43.0149005,14.6144628 40.6480442,16.9939356 37.515346,17 C34.4065302,17.0062184 31.9813937,14.584913 32,11.4937523 C32.0188214,8.43409948 34.3981536,6.04127584 37.462769,6.00051133 C40.5396821,5.9595688 42.9849583,8.38229829 43,11.4864538" id="Fill-9" fill="#FFFFFF"></path>
                <path d="M32.9856052,31 L23.2712066,31 C23.0340591,28.3718152 23.99056,25.416586 21,23.4910249 C22.8969956,22.2112027 24.9730017,21.789698 27.1314299,22.0949975 C28.4564384,22.2823522 29.7943253,22.7346477 30.9870538,23.3217621 C32.3148219,23.9753291 32.9247085,25.2304491 32.9745665,26.6473517 C33.0244245,28.0640803 32.9856052,29.4835924 32.9856052,31" id="Fill-11" fill="#FFFFFF"></path>
                <path d="M12.0132467,31 C12.0132467,29.6444853 11.9783193,28.375582 12.0218938,27.110105 C12.0785237,25.4587794 12.8477742,24.2791523 14.1863753,23.6726827 C16.2747287,22.726811 18.3693555,22.7264303 20.3712381,24.0048514 C21.4660256,24.7040236 21.9851892,25.8227372 21.9955318,27.2311705 C22.0043484,28.4654293 21.9973968,29.6996881 21.9973968,31 L12.0132467,31 Z" id="Fill-13" fill="#FFFFFF"></path>
                <path d="M24.495597,1.26649934 C25.3668002,0.296644383 26.3747918,-0.225673937 27.6197858,0.0953682402 C29.6202249,0.611342613 30.6351656,2.80019664 29.5710322,4.66128006 C28.8496014,5.92314883 27.8103386,7.00373451 26.8191713,8.0683642 C26.1463844,8.79061297 25.3102927,9.34465103 24.5155301,10 C22.5940918,8.63355222 20.7790852,7.23327005 19.5699341,5.16648895 C18.3267689,3.04165112 19.2018124,0.609996927 21.3746999,0.0832570682 C22.6218884,-0.219137749 23.6249424,0.331055491 24.495597,1.26649934" id="Fill-15" fill="#FFFFFF"></path>
                <path d="M22,16.4924493 C21.9960865,13.9465958 23.9194115,12.0069245 26.4551021,12 C28.9618636,11.9929271 30.9758956,13.961713 30.9997855,16.4426184 C31.0240487,18.9580509 28.98706,21.0029829 26.4595815,21 C23.9513269,20.9973839 22.0039254,19.0291578 22,16.4924493" id="Fill-17" fill="#FFFFFF"></path>
                <path d="M16.9836268,14 C19.2139864,13.9981088 20.9831836,15.749113 20.9998883,17.975014 C21.0164053,20.1649523 19.1987833,21.9969673 17.0067131,22 C14.8069475,22.0032134 13.0075317,20.2056469 13,17.997538 C12.9925162,15.7665265 14.7508272,14.0018943 16.9836268,14" id="Fill-19" fill="#FFFFFF"></path>
            </g>
        </g>
    </g>
</svg>