<?xml version="1.0" encoding="UTF-8"?>
<svg width="76px" height="49px" viewBox="0 0 76 49" version="1.1" xmlns="http://www.w3.org/2000/svg" xmlns:xlink="http://www.w3.org/1999/xlink">
    <!-- Generator: Sketch 63.1 (92452) - https://sketch.com -->
    <title>Group 21</title>
    <desc>Created with Sketch.</desc>
    <defs>
        <polygon id="path-1" points="0.155554839 0.250500679 26.8226129 0.250500679 26.8226129 20.8793507 0.155554839 20.8793507"></polygon>
        <polygon id="path-3" points="0 0.0161720477 19.9036625 0.0161720477 19.9036625 21.8665615 0 21.8665615"></polygon>
    </defs>
    <g id="Page-1" stroke="none" stroke-width="1" fill="none" fill-rule="evenodd">
        <g id="Mit-forbrug/samligning" transform="translate(-72.000000, -186.000000)">
            <g id="Group-21" transform="translate(72.000000, 186.000000)">
                <g id="Group-3" transform="translate(49.000000, 28.000000)">
                    <mask id="mask-2" fill="white">
                        <use xlink:href="#path-1"></use>
                    </mask>
                    <g id="Clip-2"></g>
                    <path d="M26.8048452,20.8793507 L6.99961935,20.8793507 C6.99961935,18.9666247 6.94010323,17.1082685 7.01123226,15.2548027 C7.19790968,10.3957479 5.04603871,7.00352877 0.613103226,4.98781644 C0.443554839,4.91072055 0.290845161,4.79766575 0.155554839,4.71625479 C1.60745806,1.63270685 4.44652258,0.976816438 7.38865161,0.563720548 C11.7138774,-0.0438410959 15.9766839,0.135665753 20.0197161,1.96928219 C24.4744258,3.98930959 26.9465226,7.3081726 26.8179097,12.3300493 C26.7456194,15.1500904 26.8048452,17.9735836 26.8048452,20.8793507" id="Fill-1" fill="#FFFFFF" mask="url(#mask-2)"></path>
                </g>
                <g id="Group-6" transform="translate(0.000000, 27.000000)">
                    <mask id="mask-4" fill="white">
                        <use xlink:href="#path-3"></use>
                    </mask>
                    <g id="Clip-5"></g>
                    <path d="M0.07688,21.8665615 C0.07688,18.1863564 -0.126853333,14.6020487 0.12888,11.0549718 C0.440346667,6.73733077 2.95501333,3.89340769 6.52728,2.04512564 C10.0531467,0.220817949 13.8102133,-0.178002564 17.5707467,0.0930487179 C17.6363467,1.66125385 17.47128,3.23651026 17.8270133,4.66679231 C18.1867467,6.11230513 19.0627467,7.41397179 19.8307467,9.02702308 C19.9219467,8.73904872 19.91928,8.86286923 19.8683467,8.89135641 C16.4774133,10.8076128 15.0702133,13.8382538 15.2987467,17.8371769 C15.3731467,19.1430744 15.3102133,20.4577154 15.3102133,21.8665615 L0.07688,21.8665615 Z" id="Fill-4" fill="#FFFFFF" mask="url(#mask-4)"></path>
                </g>
                <path d="M26.9998062,14.5715818 C26.9677924,19.7674233 22.7305475,23.985821 17.5289891,24 C12.2272134,24.014659 7.96101691,19.6847912 8.0002687,14.328954 C8.0378502,9.15751396 12.3469175,4.95298073 17.5598895,5.00039715 C22.8847709,5.04947731 27.0326553,9.2548424 26.9998062,14.5715818" id="Fill-7" fill="#FFFFFF"></path>
                <path d="M68,17.479065 C68.023028,22.3132607 64.3651592,25.9906278 59.5237166,26 C54.7191831,26.0096102 50.9712449,22.2675928 51,17.4903444 C51.0290877,12.7617901 54.7062373,9.06378994 59.4424612,9.00079024 C64.1976905,8.93751542 67.9767537,12.6817337 68,17.479065" id="Fill-9" fill="#FFFFFF"></path>
                <path d="M36.5960771,49 C36.2205936,44.9117126 37.7350533,40.3146894 33,37.3193721 C36.0035764,35.3285375 39.2905861,34.6728636 42.7080973,35.1477739 C44.8060275,35.4392146 46.9243485,36.1427853 48.8128351,37.0560743 C50.9151347,38.0727341 51.8807885,40.025143 51.9597303,42.2292137 C52.0386721,44.4330139 51.9772082,46.6411437 51.9772082,49 L36.5960771,49 Z" id="Fill-11" fill="#FFFFFF"></path>
                <path d="M19.0211948,49 C19.0211948,46.7972887 18.9653109,44.7353207 19.0350301,42.6789206 C19.1256379,39.9955164 20.3564388,38.0786224 22.4982006,37.0931094 C25.839566,35.5560679 29.1909687,35.5554492 32.393981,37.6328835 C34.145641,38.7690384 34.9763027,40.586948 34.9928509,42.875652 C35.0069575,44.8813226 34.9958349,46.8869932 34.9958349,49 L19.0211948,49 Z" id="Fill-13" fill="#FFFFFF"></path>
                <path d="M38.4931954,2.02639895 C39.8396003,0.474631013 41.3974055,-0.361078299 43.3214871,0.152589184 C46.4130748,0.978148181 47.9816196,4.48031463 46.3370498,7.4580481 C45.2221112,9.47703814 43.6159779,11.2059752 42.0841738,12.9093827 C41.0444123,14.0649808 39.7522705,14.9514416 38.5240011,16 C35.5545055,13.8136836 32.7494953,11.5732321 30.8808073,8.26638232 C28.9595519,4.86664179 30.3118919,0.975995084 33.6699908,0.133211309 C35.5974639,-0.350620398 37.1476383,0.529688786 38.4931954,2.02639895" id="Fill-15" fill="#FFFFFF"></path>
                <path d="M34,25.9882545 C33.9934776,22.0280379 37.1990191,19.0107714 41.4251702,19 C45.603106,18.9889977 48.9598259,22.0515536 48.9996425,25.9107398 C49.0400811,29.8236347 45.6451,33.00464 41.4326358,33 C37.2522115,32.9959305 34.0065424,29.9342455 34,25.9882545" id="Fill-17" fill="#FFFFFF"></path>
                <path d="M26.4733936,22 C30.097728,21.9969267 32.9726734,24.8423087 32.9998185,28.4593978 C33.0266586,32.0180475 30.0730228,34.9950718 26.5109088,35 C22.9362896,35.0052218 20.012239,32.0841763 20,28.4959993 C19.9878389,24.8706056 22.8450942,22.0030782 26.4733936,22" id="Fill-19" fill="#FFFFFF"></path>
            </g>
        </g>
    </g>
</svg>