<?xml version="1.0" encoding="UTF-8"?>
<svg width="128px" height="228px" viewBox="0 0 128 228" version="1.1" xmlns="http://www.w3.org/2000/svg" xmlns:xlink="http://www.w3.org/1999/xlink">
    <!-- Generator: Sketch 63.1 (92452) - https://sketch.com -->
    <title>Group 22</title>
    <desc>Created with Sketch.</desc>
    <defs>
        <filter x="-10.0%" y="-5.5%" width="120.0%" height="110.9%" filterUnits="objectBoundingBox" id="filter-1">
            <feOffset dx="0" dy="2" in="SourceAlpha" result="shadowOffsetOuter1"></feOffset>
            <feGaussianBlur stdDeviation="2" in="shadowOffsetOuter1" result="shadowBlurOuter1"></feGaussianBlur>
            <feColorMatrix values="0 0 0 0 0   0 0 0 0 0   0 0 0 0 0  0 0 0 0.0208697552 0" type="matrix" in="shadowBlurOuter1" result="shadowMatrixOuter1"></feColorMatrix>
            <feMerge>
                <feMergeNode in="shadowMatrixOuter1"></feMergeNode>
                <feMergeNode in="SourceGraphic"></feMergeNode>
            </feMerge>
        </filter>
        <polygon id="path-2" points="0 0.203847082 119.827173 0.203847082 119.827173 10.8099638 0 10.8099638"></polygon>
        <polygon id="path-4" points="0 220 119.827804 220 119.827804 0.231468813 0 0.231468813"></polygon>
    </defs>
    <g id="Page-1" stroke="none" stroke-width="1" fill="none" fill-rule="evenodd">
        <g id="Spar-vand--Copy" transform="translate(-751.000000, -228.000000)">
            <g id="Group-22" filter="url(#filter-1)" transform="translate(755.000000, 230.000000)">
                <g id="Group-17">
                    <path d="M109.720709,16.904008 C109.320622,22.299662 110.029438,32.748837 108.989841,51.9271066 C108.088856,68.4185352 108.397585,77.7157586 105.46466,84.9696016 C102.818411,91.5234849 98.6316679,95.525497 96.1460845,98.683163 C71.6241815,98.7710503 47.1022786,98.8589376 22.5803756,98.9468249 C20.7090999,96.7998632 18.1857129,93.4789779 16.1191188,88.965336 C14.2604443,84.9036861 13.5138241,81.50433 13.0853839,79.3730624 C10.1619093,64.7963219 10.0547993,52.4450141 10.0547993,52.4450141 C10.0547993,24.7510905 10.7919685,17.5129416 10.3414762,11.9917344 C10.3099733,11.5993803 10.1997129,10.4191791 10.6029508,8.98159356 C11.2267093,6.75302213 12.7199496,5.18674447 13.9737673,4.16662374 C14.9913129,3.81507445 16.0025579,3.46038632 17.0169531,3.10569819 C24.6690218,2.11382696 32.7652821,1.32911871 41.2679307,0.842599598 C69.4473271,-0.761344064 79.9031591,2.04477264 92.4791401,1.80936016 C93.3958762,1.793666 96.2909981,2.19229779 102.081242,2.9927002 C103.388615,3.17475252 105.222087,3.45096982 106.882293,4.82263984 C108.098307,5.8270664 108.753569,7.03237827 109.106402,7.85475252 C109.270217,8.63004427 109.528541,9.97032596 109.682906,11.6590181 C109.922328,14.3364427 109.758513,16.3641288 109.720709,16.904008" id="Fill-1" fill="#FAF9F9"></path>
                    <path d="M36.0639569,153.807976 C29.7098102,150.480813 25.1387309,146.679686 22.1554007,143.807654 C18.3970978,140.191718 12.2823735,133.358479 8.1712374,123.147855 C6.76620544,119.666889 5.93137704,116.615944 5.41787882,114.39365 C41.7817439,114.39365 78.145609,114.390511 114.506324,114.390511 C113.025685,121.026004 110.662963,126.139163 108.769635,129.560491 C103.111704,139.802503 95.7242599,145.672121 92.6023167,147.941497 C89.0393321,150.534173 85.7567238,152.269948 83.3435972,153.390511 L89.6914433,219.69208 C69.0570054,219.792523 48.4194173,219.899243 27.7849794,219.999686 L36.0639569,153.807976 Z" id="Fill-3" fill="#E4E3E1"></path>
                    <g id="Group-7" transform="translate(0.000000, 103.581489)">
                        <mask id="mask-3" fill="white">
                            <use xlink:href="#path-2"></use>
                        </mask>
                        <g id="Clip-6"></g>
                        <path d="M117.177775,10.8099638 L2.65191905,10.8099638 C1.18703148,10.8099638 -0.000630059171,9.62662374 -0.000630059171,8.17020523 L-0.000630059171,2.84674447 C-0.000630059171,1.38718712 1.18703148,0.203847082 2.65191905,0.203847082 L117.177775,0.203847082 C118.639512,0.203847082 119.827173,1.38718712 119.827173,2.84674447 L119.827173,8.17020523 C119.827173,9.62662374 118.639512,10.8099638 117.177775,10.8099638" id="Fill-5" fill="#FAF9F9" mask="url(#mask-3)"></path>
                    </g>
                    <path d="M117.177775,103.78565 C118.283529,101.682632 117.98425,99.3724507 116.642224,98.2079437 C115.753841,97.4326519 114.638636,97.3635976 114.134589,97.3698753 C82.8212631,97.3698753 59.3362687,97.3698753 43.6796058,97.3698753 C35.1671989,97.3698753 22.3985885,97.3698753 5.37377467,97.3698753 C4.98943858,97.3981247 4.22391669,97.5079839 3.53400189,98.0572797 C2.02185988,99.2531751 2.3085368,101.387581 2.35264095,101.676354 C2.59206343,103.258326 3.66316402,104.209392 3.99394509,104.479332 L117.177775,103.78565 Z" id="Fill-8" fill="#55595D"></path>
                    <mask id="mask-5" fill="white">
                        <use xlink:href="#path-4"></use>
                    </mask>
                    <g id="Clip-11"></g>
                    <polygon id="Fill-10" fill="#5E6369" mask="url(#mask-5)" points="40.9538462 97.4285714 44.9956757 97.4285714 44.9956757 93.7142857 40.9538462 93.7142857"></polygon>
                    <path d="M95.2844786,10.1363702 C96.172862,9.07544467 96.065752,7.70377465 95.9019366,5.9585835 C95.8074277,4.99496177 95.5837567,3.59818109 94.9757496,1.97540443 C96.2673709,2.14804024 98.2993117,2.41797988 100.83215,2.76325151 C102.914495,3.04260765 103.976145,3.19327163 104.842476,3.56679276 C105.488287,3.84614889 108.014824,4.95729577 109.060722,7.61274849 C109.404105,8.48220523 109.482862,9.26063581 109.501764,9.75657143 C109.580521,11.0529095 109.700232,13.1119839 109.832545,15.6387445 C111.461248,47.1494889 109.514985,61.880873 107.416268,77.5082817 C106.660193,83.1381459 104.397073,90.7284285 97.269165,97.3143179 L45.8374348,97.3143179 C45.6830703,93.8051026 46.0516549,91.0743179 46.350933,89.4170141 C50.9598159,63.8543581 82.9069662,49.704499 92.6224786,45.401159 C95.4608951,44.1424869 97.7952644,43.2447807 99.1246892,42.7519839 C99.8398064,42.4537948 100.554924,42.1524668 101.270041,41.8542777 C101.062121,34.0982213 100.791196,26.3013602 100.460415,18.4699718 C100.432062,17.8327887 100.403709,17.1987445 100.378507,16.5647002 C100.353305,16.4422857 100.536022,14.8854245 99.8114537,14.4522656 C99.1530419,14.0599115 98.1827508,14.1540765 98.0409875,14.1854648 C94.9820502,14.1980201 90.7701046,14.3267123 87.7048667,14.3392676 C86.643217,14.970173 86.4636502,15.6356056 85.6382727,14.9230905 C84.907404,14.2984628 84.513617,13.1622052 84.907404,12.3272757 C85.2129827,11.6869537 85.9060478,11.3856258 86.8101827,11.1502133 C88.0608502,10.8237746 94.8056336,10.7107767 95.2844786,10.1363702 Z" id="Fill-12" fill="#E4E3E1" mask="url(#mask-5)"></path>
                    <polygon id="Fill-13" fill="#5E6369" mask="url(#mask-5)" points="74.3879361 97.6388732 78.432916 97.6388732 78.432916 94.3305433 74.3879361 94.3305433"></polygon>
                    <polygon id="Fill-14" fill="#C2C1BF" mask="url(#mask-5)" points="10.4621325 15.4987525 32.816632 15.4987525 32.816632 14.3028571 10.4621325 14.3028571"></polygon>
                    <polygon id="Fill-15" fill="#C2C1BF" mask="url(#mask-5)" points="87.4585136 14.305996 109.809863 14.305996 109.809863 13.1101006 87.4585136 13.1101006"></polygon>
                    <path d="M20.5030705,72.9491268 C17.3086705,62.8075573 17.4535841,53.6641368 17.8442208,48.7016419 C18.2222563,43.9023662 18.9940788,35.2329095 24.0251013,25.6688853 C26.5516386,20.8664708 34.2163084,6.29914688 50.6135983,1.65681288 C53.9403108,0.715162978 61.9263108,-1.03630584 71.1850303,1.69134004 C81.0328551,4.59476056 86.6781853,10.9038149 90.742067,15.4488451 C94.4657167,19.60466 100.318966,32.5994286 103.12273,44.4391066 C105.781579,55.6729899 103.740188,65.1334326 101.887814,72.4061087 C100.533187,77.7075976 100.986829,77.1269135 96.3149404,85.8089256 C94.7271912,88.7688451 91.7281096,92.17134 90.0332504,93.9447807 C89.7434232,94.2492475 89.3527865,94.4030503 88.9369475,94.4030503 L31.7685285,94.4030503 C31.2455794,94.4030503 30.7698847,94.1613602 30.4863581,93.7219235 C29.0592741,91.4964909 27.3392125,88.6056258 25.5939486,85.1340765 C24.5196978,82.99967 22.20108,78.338503 20.5030705,72.9491268" id="Fill-16" fill="#55595D" mask="url(#mask-5)"></path>
                </g>
                <path d="M82.6053016,153 C66.7359185,153.139129 50.8697074,153.278258 35,153.420548 C34.9908084,154.963613 35.1842988,157.461607 36.4340563,160.124027 C38.4419155,164.395913 41.9437741,166.463873 44.0404486,167.703384 C53.9782413,173.578413 68.1506186,171.260654 70.6501337,170.824296 C72.2297765,170.163434 73.4129226,170.198216 74.2312917,170.378451 C81.9169833,172.076455 86.9064975,193.056444 80.2707291,208.502902 C79.0495193,211.339233 68.7659815,216.733635 64.169792,217.641135 C57.7782655,218.90278 51.8403312,219.620558 46.5019,220 C60.6679333,219.933598 74.8339667,219.864033 89,219.791307 L82.6053016,153 Z" id="Fill-18" fill="#C2C1BF"></path>
                <path d="M6.89263024,116.636646 L82.7852605,116.636646 C83.658831,118.270186 84.0559085,119.810559 84.1226175,121.251553 C84.9612452,138.555901 39.4371029,152.254658 36.8989835,153 C52.7916137,152.860248 68.6810673,152.723602 84.5736976,152.586957 C87.6423126,151.18323 91.8481576,148.931677 96.2731893,145.413043 C99.2401525,143.046584 105.847522,137.295031 110.907878,127.736025 C112.591487,124.559006 114.649936,119.925466 116,114 C79.3354511,114 42.6677255,114.003106 6,114.003106 L6.67662008,116.608696 L6.89263024,116.636646 Z" id="Fill-20" fill="#DCDBD9"></path>
            </g>
        </g>
    </g>
</svg>