<?xml version="1.0" encoding="UTF-8"?>
<svg width="292px" height="220px" viewBox="0 0 292 220" version="1.1" xmlns="http://www.w3.org/2000/svg" xmlns:xlink="http://www.w3.org/1999/xlink">
    <!-- Generator: Sketch 63.1 (92452) - https://sketch.com -->
    <title>Group 46</title>
    <desc>Created with Sketch.</desc>
    <defs>
        <filter x="-4.2%" y="-5.7%" width="108.5%" height="111.3%" filterUnits="objectBoundingBox" id="filter-1">
            <feOffset dx="0" dy="2" in="SourceAlpha" result="shadowOffsetOuter1"></feOffset>
            <feGaussianBlur stdDeviation="2" in="shadowOffsetOuter1" result="shadowBlurOuter1"></feGaussianBlur>
            <feColorMatrix values="0 0 0 0 0   0 0 0 0 0   0 0 0 0 0  0 0 0 0.0922749126 0" type="matrix" in="shadowBlurOuter1" result="shadowMatrixOuter1"></feColorMatrix>
            <feMerge>
                <feMergeNode in="shadowMatrixOuter1"></feMergeNode>
                <feMergeNode in="SourceGraphic"></feMergeNode>
            </feMerge>
        </filter>
    </defs>
    <g id="Page-1" stroke="none" stroke-width="1" fill="none" fill-rule="evenodd">
        <g id="Spar-vand-" transform="translate(-677.000000, -215.000000)">
            <g id="Group-46" filter="url(#filter-1)" transform="translate(681.000000, 217.000000)">
                <g id="Group-19" transform="translate(8.000000, 40.000000)">
                    <path d="M139.295089,16.2538411 C138.990727,15.8346837 138.956909,15.2816062 139.208482,14.8296768 C141.850412,10.0328327 140.027951,4.0432509 135.138359,1.45183837 C130.248767,-1.13957417 124.143376,0.647913822 121.501446,5.444758 C119.652178,8.8032772 119.942105,12.9070551 122.245855,15.9827644 C122.782407,16.6895868 122.737866,17.6686997 122.138627,18.3253528 C121.22719,19.3166034 119.251723,19.9437212 115.127573,17.2289081 C114.671442,16.9295099 114.134478,16.7688869 113.585141,16.7680777 C112.219223,16.7692915 111.059512,17.7520457 110.859491,19.0778941 C110.121268,23.9329995 110.034661,34.695155 123.77179,34.695155 L128.646948,34.695155 C141.513882,34.7036464 144.949298,23.9410914 139.295089,16.2538411" id="Fill-3" fill="#FFDC36"></path>
                    <path d="M115.082207,23.4274617 C114.480494,24.0088606 114.37739,24.9240479 114.834758,25.620351 C116.171395,27.6433116 119.520205,31.4262479 125.969962,31.4262479 C129.896153,31.4262479 134.049171,28.9986952 134.820387,25.0296465 C135.45963,21.7362666 133.500659,17.710575 129.656952,17.8805037 C126.836034,18.0099732 125.190498,20.3970667 122.810864,21.5016032 C121.131098,22.2739696 119.328844,22.7598847 117.482462,22.9379052 C116.604019,23.0228696 115.787437,22.7275173 115.082207,23.4274617" id="Fill-5" fill="#FAB545"></path>
                    <path d="M136.189893,7.72107419 C135.942857,7.71986042 135.729638,7.55235928 135.674375,7.31648207 L135.418678,6.26090123 C135.351454,5.98132807 135.527967,5.70135033 135.812534,5.6358064 C136.096688,5.56985789 136.382491,5.74261872 136.449715,6.02178729 L136.705412,7.07777272 C136.774698,7.35572751 136.601071,7.63610985 136.318155,7.70408132 C136.316505,7.70448592 136.315268,7.70448592 136.313618,7.70489051 L136.189893,7.72107419 Z" id="Fill-7" fill="#38494B"></path>
                    <path d="M138.878633,4.92526172 C138.878633,4.92526172 139.097213,8.00420776 137.641388,9.4040965 C136.185563,10.8039852 138.614687,12.9891873 141.493344,10.9253629 C141.864105,10.6538816 142.283943,10.4536085 142.730588,10.3346584 C143.263016,10.2019522 143.636252,9.7326253 143.637931,9.19411318 C143.641613,8.67299853 143.293122,8.21297729 142.784202,8.06530117 C142.374262,7.94473272 141.941639,7.91438831 141.518088,7.97588631 C141.518088,7.97588631 143.25848,6.48698731 142.825444,4.76382946 C142.718628,4.32889293 142.272395,4.06226673 141.829462,4.16746068 C141.723059,4.19254539 141.622842,4.23866889 141.534585,4.30218985 C140.779866,4.87185556 139.814402,5.09842715 138.878633,4.92526172" id="Fill-9" fill="#FAB545"></path>
                    <path d="M20.214684,50.6441713 C22.0330215,50.9035149 23.5469968,43.0827492 29.2667798,42.0587265 C32.8304575,41.419471 35.4530042,43.8793911 37.7872728,42.803176 C40.2081486,41.6905477 38.1295772,38.7208416 40.979777,36.8313963 C42.8810099,35.5731149 46.221571,35.290305 48.592957,35.9736611 C52.1393132,36.9976837 52.0733268,39.7610479 54.613803,39.9309766 C56.7876422,40.0806757 57.2660435,38.0856319 61.0107713,37.2926314 C63.3941174,36.7913417 66.8423188,36.8313963 68.1620466,38.1018156 C69.4817745,39.3726395 67.8197422,41.294452 68.9126419,41.7957417 C70.0051291,42.2974359 71.646953,40.4767714 74.9339002,40.2141911 C77.5152054,40.0033986 80.6829647,40.7887119 82.0851755,42.322116 C83.5410003,43.9404845 82.2872589,45.4451626 83.5904901,46.0160421 C84.774121,46.5379659 86.2295334,45.4532544 89.6117485,44.6966672 C91.1500562,44.3527639 96.4578367,43.1713549 99.0189336,44.6966672 C101.427437,46.1370151 99.5344523,48.8643706 101.650141,49.7095635 C103.654478,50.5187478 105.80316,48.2570778 109.931433,48.6535781 C110.599546,48.7183129 111.581093,48.8801497 115.57327,50.765549 C117.502959,51.6799272 120.109834,52.9867597 123.099843,54.7224599 L0.793651339,54.7224599 C-0.329354583,53.3699085 -0.158202377,51.3870025 1.18173381,50.2395792 C2.51218446,49.0597886 4.28763084,48.484054 6.07297518,48.6535781 C8.36971406,48.9489304 8.99287306,50.6967683 10.1971247,50.5025641 C11.5704665,50.2800384 10.9101902,48.0466899 13.2077539,46.8090426 C14.2924052,46.2260254 16.0653771,45.8461134 17.3319034,46.2786224 C19.8393864,47.0922571 19.0145565,50.4665554 20.214684,50.6441713" id="Fill-11" fill="#DCE9F8"></path>
                    <path d="M183.427902,25.329166 C187.020037,24.8598392 189.511023,27.4447782 191.90303,26.481849 C194.377519,25.486957 192.447005,22.4359278 195.39206,20.6678602 C197.351031,19.5026349 200.699841,19.3816619 203.038234,20.1783037 C206.527264,21.3920801 206.337553,24.1271228 208.852872,24.4228797 C211.014339,24.6737268 211.59172,22.7033632 215.373565,22.0924291 C217.782068,21.6878369 221.221609,21.9103626 222.47535,23.2289283 C223.729092,24.5478986 221.976328,26.4009306 223.044483,26.9515804 C224.112225,27.5014211 225.840656,25.7661255 229.135852,25.660527 C231.725405,25.5800131 234.847799,26.510575 236.171651,28.1127598 C237.548705,29.7796794 236.217017,31.2398523 237.491379,31.8754665 C238.650265,32.4495828 240.155579,31.4381025 243.570375,30.8478026 C245.125592,30.5767258 250.486987,29.6340262 252.965188,31.2968998 C255.299869,32.8505336 253.274499,35.4840237 255.344822,36.4307692 C257.307917,37.3293683 259.563827,35.1769382 263.667768,35.77533 C264.335881,35.8724321 265.317428,36.0787741 269.198253,38.1543317 C271.078453,39.1581247 267.831881,41.0062669 270.727446,42.8916662 L154.336151,36.5930107 C153.285731,35.1906944 153.553388,33.2251859 154.942401,32.1424973 C156.326878,31.0335103 158.122121,30.5447631 159.891381,30.7952056 C162.17616,31.1997977 162.708175,32.9755525 163.932635,32.8181662 C165.314638,32.6644212 164.757465,30.3906135 167.125139,29.2739392 C168.23866,28.7435189 170.012044,28.464755 171.286406,28.945815 C173.744399,29.9131948 172.750067,33.2466292 173.942358,33.4695595 C175.748736,33.8171041 177.654093,26.0772569 183.427902,25.329166 Z" id="Fill-13" fill="#DCE9F8"></path>
                    <path d="M74.0348356,40.699297 C75.8577097,40.9586406 77.3671484,33.1378749 83.1079646,32.1138522 C86.6712298,31.4745967 89.2941889,33.9345168 91.6280452,32.8583017 C94.048921,31.7456734 91.9703496,28.7759672 94.8201369,26.886522 C96.7217823,25.6241946 100.061931,25.3454306 102.433317,26.0287867 C105.980498,27.0528094 105.914512,29.8121276 108.454988,29.9861023 C110.628002,30.1358013 111.102692,28.1367117 114.851544,27.347757 C117.235302,26.8420169 120.682679,26.8828807 122.002819,28.1569413 C123.322547,29.4314065 121.660102,31.3451272 122.753414,31.8508673 C123.846314,32.3566075 125.487725,30.531897 128.77426,30.2648662 C131.35639,30.0585243 134.523737,30.839387 135.925948,32.3772417 C137.381773,33.9956102 136.128031,35.5002883 137.427138,36.0711678 C138.614893,36.5930916 140.070718,35.5043342 143.448397,34.7517928 C144.990829,34.4078895 150.298609,33.2228392 152.855582,34.7517928 C155.264085,36.1884995 153.375225,38.9150458 155.490913,39.7646892 C157.49525,40.5738735 159.643932,38.3081576 163.768082,38.7087038 C164.440318,38.7734385 165.417741,38.9352754 169.414042,40.8206747 C171.339608,41.7310069 173.950607,43.0418854 176.940615,44.7775856 L54.6183395,44.7775856 C53.4912095,43.4254387 53.660712,41.4397006 55.0018854,40.290659 C56.3335733,39.1132959 58.1086073,38.5391797 59.8931268,38.7087038 C62.1944022,39.004056 62.8171488,40.751894 64.0172764,40.5536439 C65.3906182,40.3351641 64.7303418,38.0977697 67.0279055,36.8637637 C68.1125569,36.2771051 69.8855287,35.9008345 71.1520551,36.333748 C73.6636621,37.15507 72.8347081,40.5293683 74.0348356,40.699297" id="Fill-15" fill="#DCE9F8"></path>
                    <path d="M105.947464,44.713215 C108.862825,45.1178071 111.283701,32.5997269 120.443437,30.9570829 C126.155796,29.9371062 130.341396,33.878238 134.090248,32.1708593 C137.975197,30.386608 134.643296,25.6286047 139.208317,22.6022556 C142.25194,20.579295 147.601374,20.1382896 151.399716,21.2306883 C157.082381,22.8490568 156.975154,27.2995701 161.041977,27.5706468 C164.522347,27.8093562 165.285727,24.6126738 171.286365,23.3463005 C175.109039,22.5371163 180.631688,22.6022556 182.738716,24.6126738 C184.933176,26.7044151 182.190204,29.7226723 183.942967,30.5278107 C185.695731,31.3333536 188.322814,28.4162444 193.585229,27.9914226 C197.709379,27.6596571 202.790331,28.9138927 205.038405,31.3738128 C207.372673,33.930835 205.359676,36.3745714 207.446496,37.2889496 C209.347729,38.1224093 211.677873,36.3826632 217.088757,35.1769787 C219.563247,34.6267334 228.058995,32.7291964 232.1584,35.1769787 C236.01448,37.4791079 232.98323,41.8446569 236.377405,43.204491 C239.581869,44.4906893 243.025534,40.8736358 249.632421,41.5128913 C250.708825,41.6184899 252.30487,41.8770242 258.672557,44.8952814 C261.761958,46.3562636 265.943433,48.4556921 270.727446,51.23524 L74.8303428,51.23524 C73.0569585,48.8764679 73.2879109,46.0690032 75.4448411,44.0496839 C77.1769839,42.4313154 80.3402066,41.1366206 83.2807252,41.5128913 C86.9635908,41.9907146 87.961635,44.7864462 89.9123577,44.4704597 C92.1064053,44.1184646 91.050623,40.5382289 94.7334885,38.5553229 C96.4697555,37.6207151 99.3071704,37.0178729 101.360997,37.7097254 C105.349462,39.0367875 104.021486,44.4417337 105.947464,44.713215" id="Fill-17" fill="#DCE9F8"></path>
                </g>
                <path d="M71,189.875721 L57.921265,208.543003 C55.2031043,212.331059 50.023294,213.128907 46.3510831,210.324634 C43.3087074,208.001431 42.1834908,203.843472 43.6176651,200.230037 L52.2908913,179 L71,189.875721 Z" id="Fill-20" fill="#C2C1BF"></path>
                <path d="M232,189.875721 L218.454167,208.543003 C215.638929,212.331059 210.274126,213.128907 206.470765,210.324634 C203.319733,208.001431 202.15433,203.843472 203.639725,200.230037 L212.622709,179 L232,189.875721 Z" id="Fill-20" fill="#C2C1BF" transform="translate(217.500000, 195.500000) scale(-1, 1) translate(-217.500000, -195.500000) "></path>
                <g id="Group-45">
                    <path d="M274.328069,83.3185792 L267.350826,156.744326 C267.187546,158.470615 266.89618,160.183059 266.479182,161.867403 C262.402508,178.824054 247.169612,190.783059 229.649163,190.781433 L54.0599986,190.781433 C34.605973,190.789167 18.3136001,176.121611 16.3787964,156.857946 L10.9852446,109.712199 L8.12068756,89.2931946 L70.2369708,95.9918824 L151.426293,79.2950498 L222.570024,71.6800724 L274.328069,83.3185792 Z" id="Fill-22" fill="#E4E3E1"></path>
                    <path d="M61.237842,102.194348 C40.1669786,102.194348 21.3059164,99.0667466 3.57840033,92.6364299 C1.39724473,91.8463846 0.0427184547,90.3273801 0.0427184547,88.669914 C0.0427184547,86.1043032 3.13644009,84.0762489 6.93402433,84.0762489 C7.99554733,84.0738054 9.050932,84.2387376 10.0600745,84.5649367 C25.8728388,89.7409548 42.6141288,92.2536244 61.2501187,92.2536244 C87.8495772,92.2536244 115.017855,87.0527647 141.310397,82.0237602 C167.909855,76.9454796 195.38505,71.6880136 222.577881,71.6880136 C243.656929,71.6880136 262.522083,74.8156154 280.249599,81.2459321 C281.332246,81.6380084 282.211105,82.2105187 282.821804,82.8899463 C283.441683,83.5795855 283.785281,84.3793799 283.785281,85.212448 C283.785281,87.7780588 281.819993,91.8586018 278.022,91.8586018 C276.960477,91.8626742 274.510106,91.9704526 273.501373,91.6422173 C257.688609,86.4702716 241.21428,81.6287376 222.57829,81.6287376 C195.978831,81.6287376 168.806052,86.82919 142.509828,91.8586018 C115.910369,96.9368824 88.4429497,102.194348 61.2501187,102.194348 L61.237842,102.194348 Z" id="Fill-24" fill="#7E8589"></path>
                    <path d="M268.484659,144.978801 L266.479469,161.867443 C262.402795,178.823688 247.16908,190.7831 229.649449,190.781474 L54.060285,190.781474 C34.6058503,190.789208 18.3134773,176.121652 16.3786736,156.857986 L10.9855311,109.711833 C10.9855311,109.711833 40.0403243,183.495543 268.484659,144.966991 L268.484659,144.978801 Z" id="Fill-26" fill="#C2C1BF" opacity="0.227143787"></path>
                    <path d="M88.0733599,33.1034483 C92.1213883,33.1034483 95.4025338,36.3691044 95.4025338,40.3971134 C95.4025338,44.4255297 92.1213883,47.6907786 88.0733599,47.6907786 C84.0253316,47.6907786 80.744186,44.4255297 80.744186,40.3971134 C80.744186,36.3691044 84.0253316,33.1034483 88.0733599,33.1034483" id="Fill-35" fill="#DCE9F8"></path>
                    <path d="M175.361755,10.776991 C181.647002,10.776991 186.74264,15.8475339 186.74264,22.1027376 C186.74264,28.3571267 181.647002,33.4276697 175.361755,33.4276697 C169.076507,33.4276697 163.98087,28.3571267 163.98087,22.1027376 C163.98087,15.8475339 169.076507,10.776991 175.361755,10.776991" id="Fill-37" fill="#DCE9F8"></path>
                    <path d="M127.664337,13.2413793 C130.39426,13.2413793 132.607744,15.4437323 132.607744,18.1608363 C132.607744,20.8779404 130.39426,23.0802933 127.664337,23.0802933 C124.934005,23.0802933 122.72093,20.8779404 122.72093,18.1608363 C122.72093,15.4437323 124.934005,13.2413793 127.664337,13.2413793" id="Fill-39" fill="#DCE9F8"></path>
                    <path d="M97.7158074,5.17345249 C99.0809735,5.17345249 100.187511,6.27462896 100.187511,7.633181 C100.187511,8.99173303 99.0809735,10.0929095 97.7158074,10.0929095 C96.3506414,10.0929095 95.2441039,8.99173303 95.2441039,7.633181 C95.2441039,6.27462896 96.3506414,5.17345249 97.7158074,5.17345249" id="Fill-41" fill="#DCE9F8"></path>
                    <path d="M205.30452,0.253995475 C206.669686,0.253995475 207.776223,1.35517195 207.776223,2.71372398 C207.776223,4.07227602 206.669686,5.17345249 205.30452,5.17345249 C203.939354,5.17345249 202.832816,4.07227602 202.832816,2.71372398 C202.832816,1.35517195 203.939354,0.253995475 205.30452,0.253995475" id="Fill-43" fill="#DCE9F8"></path>
                </g>
            </g>
        </g>
    </g>
</svg>