<?xml version="1.0" encoding="UTF-8"?>
<svg width="40px" height="25px" viewBox="0 0 40 25" version="1.1" xmlns="http://www.w3.org/2000/svg" xmlns:xlink="http://www.w3.org/1999/xlink">
    <!-- Generator: Sketch 63.1 (92452) - https://sketch.com -->
    <title>credit-card</title>
    <desc>Created with Sketch.</desc>
    <g id="Page-1" stroke="none" stroke-width="1" fill="none" fill-rule="evenodd">
        <g id="Mit-vandforbrug-Copy-8" transform="translate(-556.000000, -870.000000)" fill="#FFFFFF" fill-rule="nonzero">
            <g id="Group-12" transform="translate(529.000000, 849.000000)">
                <g id="credit-card" transform="translate(27.000000, 21.000000)">
                    <path d="M36.6689062,0 L3.33109375,0 C1.49140625,-7.23693733e-05 0,1.38153134 0,3.08575771 L0,4 L40,4 L40,3.08575771 C40,1.38153134 38.5085938,0 36.6689062,0 Z" id="Path"></path>
                    <path d="M0,8 L0,21.5663057 C0,23.4627377 1.49140916,25 3.33110026,25 L36.6688997,25 C38.508669,25 40,23.4626572 40,21.5663057 L40,8 L0,8 Z M11.8289294,19.35556 L4.9153221,19.35556 L4.9153221,16.6665388 L11.8289294,16.6665388 L11.8289294,19.35556 Z M34.2646763,21.5204834 C33.5538155,21.5204834 32.913658,21.2097936 32.4638915,20.713479 C32.014125,21.2097936 31.3739675,21.5204834 30.6631068,21.5204834 C29.3020885,21.5204834 28.198727,20.3832201 28.198727,18.9802035 C28.198727,17.5772674 29.3020104,16.4399236 30.6631068,16.4399236 C31.3739675,16.4399236 32.014125,16.7506135 32.4638915,17.246928 C32.913658,16.7506135 33.5538155,16.4399236 34.2646763,16.4399236 C35.6256946,16.4399236 36.7290561,17.5771869 36.7290561,18.9802035 C36.7290561,20.3832201 35.6256165,21.5204834 34.2646763,21.5204834 Z" id="Shape"></path>
                </g>
            </g>
        </g>
    </g>
</svg>