<?xml version="1.0" encoding="UTF-8"?>
<svg width="248px" height="165px" viewBox="0 0 248 165" version="1.1" xmlns="http://www.w3.org/2000/svg" xmlns:xlink="http://www.w3.org/1999/xlink">
    <!-- Generator: Sketch 63.1 (92452) - https://sketch.com -->
    <title>Group</title>
    <desc>Created with Sketch.</desc>
    <defs>
        <filter x="-4.8%" y="-7.3%" width="109.6%" height="114.5%" filterUnits="objectBoundingBox" id="filter-1">
            <feOffset dx="0" dy="2" in="SourceAlpha" result="shadowOffsetOuter1"></feOffset>
            <feGaussianBlur stdDeviation="2" in="shadowOffsetOuter1" result="shadowBlurOuter1"></feGaussianBlur>
            <feColorMatrix values="0 0 0 0 0   0 0 0 0 0   0 0 0 0 0  0 0 0 0 0" type="matrix" in="shadowBlurOuter1" result="shadowMatrixOuter1"></feColorMatrix>
            <feMerge>
                <feMergeNode in="shadowMatrixOuter1"></feMergeNode>
                <feMergeNode in="SourceGraphic"></feMergeNode>
            </feMerge>
        </filter>
        <polygon id="path-2" points="0.00107764068 0.512025917 73.447619 0.512025917 73.447619 124.983276 0.00107764068 124.983276"></polygon>
        <polygon id="path-4" points="0 0.520742058 145.313075 0.520742058 145.313075 15.6004197 0 15.6004197"></polygon>
        <polygon id="path-6" points="0 0.0574322744 117.231935 0.0574322744 117.231935 15.1215084 0 15.1215084"></polygon>
        <polygon id="path-8" points="0 0.395316053 117.231935 0.395316053 117.231935 15.4593922 0 15.4593922"></polygon>
        <polygon id="path-10" points="0 0.363340663 117.231935 0.363340663 117.231935 15.4274168 0 15.4274168"></polygon>
        <polygon id="path-12" points="0 114.962382 196.723509 114.962382 196.723509 0.0836335564 0 0.0836335564"></polygon>
    </defs>
    <g id="Page-1" stroke="none" stroke-width="1" fill="none" fill-rule="evenodd">
        <g id="Spar-vand--Copy-3" transform="translate(-689.000000, -243.000000)">
            <g id="Group" filter="url(#filter-1)" transform="translate(689.000000, 243.000000)">
                <g id="Group-10">
                    <polygon id="Fill-1" fill="#4BAD33" points="31.0235429 0 25.3773206 11.3137554 47.9683048 11.3137554 42.3200508 0"></polygon>
                    <polygon id="Fill-2" fill="#0C8236" points="28.2006349 22.6297491 45.1453968 22.6297491 45.1453968 11.3139588 28.2006349 11.3139588"></polygon>
                    <polygon id="Fill-3" fill="#165929" points="22.5320635 39.5983473 50.7733333 39.5983473 50.7733333 22.6256794 22.5320635 22.6256794"></polygon>
                    <g id="Group-9" transform="translate(0.000000, 39.086728)">
                        <g id="Group-6">
                            <mask id="mask-3" fill="white">
                                <use xlink:href="#path-2"></use>
                            </mask>
                            <g id="Clip-5"></g>
                            <path d="M22.5312508,0.512025917 L50.7725206,0.512025917 L66.2341079,15.9768714 C70.3016635,20.0567418 70.6592508,26.5479072 67.0671238,31.0550957 L65.665219,32.8254135 C63.4384254,35.6335039 62.6826159,39.3369274 63.633473,42.7941343 L72.8779175,77.571723 C73.2517587,78.9981515 73.4427429,80.4693466 73.4488381,81.9466464 L73.4488381,108.01305 C73.4366476,117.38963 65.8440127,124.983683 56.481727,124.983683 L16.9439492,124.983683 C7.58979048,124.971474 0.0113777778,117.381491 0.00107764068,108.01305 L0.00107764068,81.9466464 C-0.00487619048,80.4693466 0.186107937,78.9981515 0.56807619,77.571723 L9.8328381,42.8165176 C10.7674413,39.3511714 10.0156952,35.6477478 7.80109206,32.8254135 L6.38090159,31.0550957 C2.78267937,26.5458723 3.1504254,20.0506372 7.23423492,15.9768714 L22.5312508,0.512025917 Z" id="Fill-4" fill="#FF9E00" mask="url(#mask-3)"></path>
                        </g>
                        <path d="M24.2176,42.9377946 L49.1268063,42.9377946 C51.761981,42.9377946 54.0456635,44.7610185 54.6328381,47.3330665 L61.9471238,79.0990799 C62.0466794,79.5121541 62.0934095,79.9354025 62.0895897,80.3606858 L62.0895897,108.012236 C62.0895897,111.137763 59.561854,113.671149 56.4410921,113.671149 L16.9033143,113.671149 C13.7886476,113.65894 11.265219,111.133693 11.2550603,108.012236 L11.2550603,80.3606858 C11.2611556,79.9354025 11.3078857,79.5121541 11.3972825,79.0990799 L18.7318857,47.3330665 C19.3170286,44.767123 21.5905524,42.9479688 24.2176,42.9377946" id="Fill-7" fill="#FDE9CC"></path>
                    </g>
                </g>
                <g id="Group-28" transform="translate(51.000000, 48.000000)">
                    <g id="Group-20">
                        <path d="M82.4635088,54.8447574 C68.1032456,54.6367379 54.6761404,50.5976934 44.6187719,43.4730267 C34.5614035,36.3483601 29.0661404,26.9008094 29.0661404,16.9158752 L29.0661404,0.326322931 L156.303947,0.326322931 L156.303947,15.1650447 L100.314474,54.8447574 L82.4635088,54.8447574 Z" id="Fill-1" fill="#58BCAF"></path>
                        <polygon id="Fill-3" fill="#4DA092" points="154.524381 16.1524437 156.252451 15.2354246 156.252451 0.394969354 29.0146439 0.394969354 29.0146439 16.1524437"></polygon>
                        <g id="Group-7" transform="translate(0.000000, 99.360923)">
                            <mask id="mask-5" fill="white">
                                <use xlink:href="#path-4"></use>
                            </mask>
                            <g id="Clip-6"></g>
                            <path d="M-0.000345614035,0.520742058 L145.313075,0.520742058 L145.313075,15.6004197 L26.3354439,15.6004197 C11.8023737,15.6004197 -0.000345614035,8.85885557 -0.000345614035,0.538077013 L-0.000345614035,0.520742058 Z" id="Fill-5" fill="#C2C1BF" mask="url(#mask-5)"></path>
                        </g>
                        <g id="Group-10" transform="translate(0.000000, 84.759463)">
                            <mask id="mask-7" fill="white">
                                <use xlink:href="#path-6"></use>
                            </mask>
                            <g id="Clip-9"></g>
                            <path d="M-0.000345614035,0.0574322744 L117.231935,0.0574322744 L117.231935,15.1215084 L26.3354439,15.1215084 C11.8023737,15.1215084 -0.000345614035,8.37821083 -0.000345614035,0.0574322744" id="Fill-8" fill="#E4E3E1" mask="url(#mask-7)"></path>
                        </g>
                        <g id="Group-13" transform="translate(0.000000, 69.339821)">
                            <mask id="mask-9" fill="white">
                                <use xlink:href="#path-8"></use>
                            </mask>
                            <g id="Clip-12"></g>
                            <path d="M-0.000345614035,0.395316053 L117.231935,0.395316053 L117.231935,15.4593922 L26.3354439,15.4593922 C11.8023737,15.4593922 -0.000345614035,8.71609461 -0.000345614035,0.395316053" id="Fill-11" fill="#C2C1BF" mask="url(#mask-9)"></path>
                        </g>
                        <g id="Group-16" transform="translate(0.000000, 54.290039)">
                            <mask id="mask-11" fill="white">
                                <use xlink:href="#path-10"></use>
                            </mask>
                            <g id="Clip-15"></g>
                            <path d="M117.231935,0.363340663 L117.231935,15.4274168 L26.3354439,15.4274168 C11.8023737,15.4274168 -0.000345614035,8.68585271 -0.000345614035,0.363340663 L117.231935,0.363340663 Z" id="Fill-14" fill="#E4E3E1" mask="url(#mask-11)"></path>
                        </g>
                        <mask id="mask-13" fill="white">
                            <use xlink:href="#path-12"></use>
                        </mask>
                        <g id="Clip-18"></g>
                        <polygon id="Fill-17" fill="#2FBDED" mask="url(#mask-13)" points="106.742895 99.8619029 129.259649 99.8619029 129.259649 84.7995602 106.742895 84.7995602"></polygon>
                        <path d="M182.069646,37.3539608 L177.23105,39.2954758 C176.919997,35.5788614 176.062875,31.9281198 174.690787,28.4611288 L172.841752,23.7980258 L176.176927,22.4632342 C180.272454,20.8268144 184.915778,22.8307353 186.547076,26.9408532 C186.858129,27.7243932 187.044761,28.5547375 187.098331,29.3972163 C187.293603,32.8399385 185.266576,36.0174358 182.069646,37.284621 L182.069646,37.3539608 Z M195.272103,28.9985124 C194.767506,20.0519419 187.127708,13.2081016 178.209138,13.7160158 C176.474155,13.814825 174.766822,14.192727 173.152804,14.8358539 L169.817629,16.1533105 L164.063155,1.64221939 L94.5083307,30.5933283 L101.697103,48.741293 L176.868155,48.5852784 L176.868155,48.2385793 L185.041927,44.9796077 C191.511822,42.4088338 195.612532,35.9688979 195.220261,28.9985124 L195.272103,28.9985124 Z" id="Fill-19" fill="#688DBA" mask="url(#mask-13)"></path>
                    </g>
                    <g id="Group-27" transform="translate(100.515464, 1.855799)">
                        <path d="M81.4442389,35.7044571 L76.5700121,37.6408112 C76.2566689,33.9340762 75.3932345,30.2930389 74.011043,26.8352636 L72.148392,22.1845559 L75.508127,20.8533124 C79.6338118,19.2212425 84.3113287,21.2198366 85.9546395,25.3190292 C86.2679826,26.1004864 86.4559885,26.9286235 86.5099532,27.7688629 C86.706663,31.2024337 84.6647102,34.3714848 81.4442389,35.6353016 L81.4442389,35.7044571 Z M94.7439149,27.3712188 C94.2356027,18.4484298 86.5395467,11.6227814 77.5553022,12.1293455 C75.8075437,12.2278921 74.087638,12.6047896 72.4617352,13.2462069 L69.1020003,14.5601615 L63.305152,0.0876432032 L38.4465953,10.3416757 L38.4465953,46.9768044 L76.2044451,46.9768044 L76.2044451,46.629298 L84.4384068,43.3789893 C90.9559443,40.8150489 95.0868515,34.3922314 94.691691,27.4403743 L94.7439149,27.3712188 Z" id="Fill-21" fill="#517FB8"></path>
                        <path d="M87.5370224,80.6724784 C86.4368398,83.9366182 83.3608545,86.1357633 79.8949311,86.1357633 L74.6725452,86.1357633 C75.8023214,82.5828992 76.3889694,78.8830797 76.4133405,75.1573269 L76.4133405,70.1262639 L80.0341947,70.1262639 C84.4941122,70.140095 88.0992993,73.7413679 88.0854131,78.1742358 C88.0836321,79.0231196 87.9443685,79.8650879 87.676286,80.6724784 L87.5370224,80.6724784 Z M93.1075673,68.6757272 C90.0663979,64.4313081 85.1382065,61.9226921 79.8949311,61.9486254 L76.2740769,61.9486254 L76.2740769,46.3886368 L0.0620506749,46.3886368 L0.0620506749,75.1919046 C0.0481328424,96.0837827 17.0887779,113.032068 38.1245482,113.047633 C51.6435644,113.054544 64.1564009,105.945358 70.9994672,94.3652684 L79.8949311,94.3652684 C86.9138177,94.3635395 93.1406424,89.8995516 95.3531932,83.2848276 C97.0330607,78.3505823 96.1957381,72.9166885 93.1075673,68.708576 L93.1075673,68.6757272 Z" id="Fill-23" fill="#4E5458"></path>
                        <path d="M87.5370224,80.6724784 C86.4368398,83.9366182 83.3608545,86.1357633 79.8949311,86.1357633 L74.6725452,86.1357633 C75.8023214,82.5828992 76.3889694,78.8830797 76.4133405,75.1573269 L76.4133405,70.1262639 L80.0341947,70.1262639 C84.4941122,70.140095 88.0992993,73.7413679 88.0854131,78.1742358 C88.0836321,79.0231196 87.9443685,79.8650879 87.676286,80.6724784 L87.5370224,80.6724784 Z M93.1075673,68.6757272 C90.0663979,64.4313081 85.1382065,61.9226921 79.8949311,61.9486254 L76.2740769,61.9486254 L76.2740769,46.3886368 L38.3769635,46.3886368 L38.3769635,113.019966 C51.8002359,112.942166 64.1929576,105.855455 70.9994672,94.3652684 L79.8949311,94.3652684 C86.9138177,94.3635395 93.1406424,89.8995516 95.3531932,83.2848276 C97.0330607,78.3505823 96.1957381,72.9166885 93.1075673,68.708576 L93.1075673,68.6757272 Z" id="Fill-25" fill="#414649"></path>
                    </g>
                </g>
            </g>
        </g>
    </g>
</svg>