<svg xmlns="http://www.w3.org/2000/svg" height="512pt" version="1.1" viewBox="0 0 512.00001 512" width="512pt">
<g id="surface1">
<path d="M 127.207031 5.207031 C 123.933594 1.855469 119.441406 -0.0234375 114.757812 0 C 105.019531 0.0273438 97.132812 7.917969 97.105469 17.65625 L 97.105469 123.585938 C 97.105469 133.335938 105.007812 141.242188 114.757812 141.242188 C 124.507812 141.242188 132.414062 133.335938 132.414062 123.585938 L 132.414062 17.65625 C 132.4375 12.972656 130.558594 8.476562 127.207031 5.207031 Z M 127.207031 5.207031 " style=" stroke:none;fill-rule:nonzero;fill:rgb(25.490196%,46.27451%,61.960784%);fill-opacity:1;" />
<path d="M 397.242188 512 C 406.980469 511.972656 414.867188 504.082031 414.894531 494.34375 L 414.894531 388.414062 C 414.824219 378.691406 406.960938 370.832031 397.242188 370.757812 C 387.503906 370.789062 379.613281 378.675781 379.585938 388.414062 L 379.585938 494.34375 C 379.613281 504.082031 387.503906 511.972656 397.242188 512 Z M 397.242188 512 " style=" stroke:none;fill-rule:nonzero;fill:rgb(25.490196%,46.27451%,61.960784%);fill-opacity:1;" />
<path d="M 0 17.65625 L 97.101562 17.65625 L 97.101562 70.621094 L 0 70.621094 Z M 0 17.65625 " style=" stroke:none;fill-rule:nonzero;fill:rgb(47.058824%,72.54902%,92.156863%);fill-opacity:1;" />
<path d="M 0 70.621094 L 97.101562 70.621094 L 97.101562 123.585938 L 0 123.585938 Z M 0 70.621094 " style=" stroke:none;fill-rule:nonzero;fill:rgb(35.294118%,66.666667%,90.588235%);fill-opacity:1;" />
<path d="M 61.792969 353.101562 L 61.792969 335.449219 C 61.792969 286.695312 101.316406 247.171875 150.070312 247.171875 L 388.414062 247.171875 C 427.417969 247.171875 459.035156 215.554688 459.035156 176.550781 L 459.035156 141.242188 C 459.035156 102.238281 427.417969 70.621094 388.414062 70.621094 L 132.414062 70.621094 L 132.414062 123.585938 L 361.929688 123.585938 C 381.433594 123.585938 397.242188 139.394531 397.242188 158.898438 L 397.242188 167.722656 C 397.242188 187.226562 381.433594 203.035156 361.929688 203.035156 L 141.242188 203.035156 C 63.234375 203.035156 0 266.269531 0 344.273438 L 0 353.101562 C 0 431.109375 63.234375 494.34375 141.242188 494.34375 L 379.585938 494.34375 L 379.585938 441.378906 L 150.070312 441.378906 C 101.316406 441.378906 61.792969 401.855469 61.792969 353.101562 Z M 61.792969 353.101562 " style=" stroke:none;fill-rule:nonzero;fill:rgb(35.294118%,66.666667%,90.588235%);fill-opacity:1;" />
<path d="M 150.070312 388.414062 C 130.566406 388.414062 114.757812 372.605469 114.757812 353.101562 L 114.757812 344.273438 C 114.757812 324.773438 130.566406 308.964844 150.070312 308.964844 L 370.757812 308.964844 C 448.765625 308.964844 512 245.730469 512 167.722656 L 512 158.894531 C 512 80.890625 448.765625 17.65625 370.757812 17.65625 L 132.414062 17.65625 L 132.414062 70.621094 L 388.414062 70.621094 C 427.417969 70.621094 459.035156 102.238281 459.035156 141.242188 L 459.035156 176.550781 C 459.035156 215.554688 427.414062 247.171875 388.414062 247.171875 L 150.070312 247.171875 C 101.316406 247.171875 61.792969 286.695312 61.792969 335.449219 L 61.792969 353.101562 C 61.792969 401.855469 101.316406 441.378906 150.070312 441.378906 L 379.585938 441.378906 L 379.585938 388.414062 Z M 150.070312 388.414062 " style=" stroke:none;fill-rule:nonzero;fill:rgb(47.058824%,72.54902%,92.156863%);fill-opacity:1;" />
<path d="M 414.894531 388.414062 L 512 388.414062 L 512 441.378906 L 414.894531 441.378906 Z M 414.894531 388.414062 " style=" stroke:none;fill-rule:nonzero;fill:rgb(47.058824%,72.54902%,92.156863%);fill-opacity:1;" />
<path d="M 414.894531 441.378906 L 512 441.378906 L 512 494.34375 L 414.894531 494.34375 Z M 414.894531 441.378906 " style=" stroke:none;fill-rule:nonzero;fill:rgb(35.294118%,66.666667%,90.588235%);fill-opacity:1;" />
</g>
</svg>