<?xml version="1.0" encoding="UTF-8"?>
<svg width="164px" height="214px" viewBox="0 0 164 214" version="1.1" xmlns="http://www.w3.org/2000/svg" xmlns:xlink="http://www.w3.org/1999/xlink">
    <!-- Generator: Sketch 63.1 (92452) - https://sketch.com -->
    <title>Group 16</title>
    <desc>Created with Sketch.</desc>
    <defs>
        <filter x="-7.7%" y="-5.8%" width="115.4%" height="111.6%" filterUnits="objectBoundingBox" id="filter-1">
            <feOffset dx="0" dy="2" in="SourceAlpha" result="shadowOffsetOuter1"></feOffset>
            <feGaussianBlur stdDeviation="2" in="shadowOffsetOuter1" result="shadowBlurOuter1"></feGaussianBlur>
            <feColorMatrix values="0 0 0 0 0   0 0 0 0 0   0 0 0 0 0  0 0 0 0.073590472 0" type="matrix" in="shadowBlurOuter1" result="shadowMatrixOuter1"></feColorMatrix>
            <feMerge>
                <feMergeNode in="shadowMatrixOuter1"></feMergeNode>
                <feMergeNode in="SourceGraphic"></feMergeNode>
            </feMerge>
        </filter>
    </defs>
    <g id="Page-1" stroke="none" stroke-width="1" fill="none" fill-rule="evenodd">
        <g id="Spar-vand--Copy-2" transform="translate(-722.000000, -232.000000)">
            <g id="Group-16" filter="url(#filter-1)" transform="translate(726.000000, 234.000000)">
                <polygon id="Fill-1" fill="#CED8DC" points="0 206 156 206 156 2 0 2"></polygon>
                <g id="Group-15">
                    <path d="M77.6199343,74.7529523 C54.237009,74.7529523 35.2818448,93.8102932 35.2818448,117.318483 C35.2818448,140.826672 54.2377851,159.884013 77.6199343,159.884013 C101.002084,159.884013 119.957248,140.826672 119.957248,117.318483 L119.957248,117.302877 C119.94871,93.8009295 100.995875,74.7529523 77.6199343,74.7529523 L77.6199343,74.7529523 Z M77.6199343,166.984771 C50.337009,166.989452 28.2160537,144.756278 28.2121724,117.326286 C28.2075164,89.8962932 50.3207104,67.6568765 77.6036358,67.6521947 C104.884233,67.6482932 127.003636,89.8760053 127.012175,117.302877 C127.019934,144.732869 104.909845,166.976187 77.6276955,166.984771 L77.6199343,166.984771 Z" id="Fill-2" fill="#FFFFFF"></path>
                    <path d="M109.370285,117.303033 C109.379594,134.933199 95.1704,149.232252 77.6347582,149.240839 C60.0998925,149.249419 45.8767284,134.964411 45.8689626,117.334245 C45.8596537,99.704078 60.0688478,85.405025 77.6037134,85.3964417 L77.6200119,85.3964417 C95.1494448,85.3964417 109.361743,99.6791083 109.370285,117.303033" id="Fill-4" fill="#688DBA"></path>
                    <polygon id="Fill-6" fill="#7E8589" points="0 42.8308333 156 42.8308333 156 0.26530303 0 0.26530303"></polygon>
                    <polygon id="Fill-8" fill="#CED8DC" points="102.315821 28.6371212 141.121791 28.6371212 141.121791 14.4512121 102.315821 14.4512121"></polygon>
                    <path d="M77.6199343,28.6449242 C73.7230388,28.6449242 70.565009,25.4690909 70.565009,21.5519697 C70.565009,17.6348485 73.7230388,14.4590152 77.6199343,14.4590152 C81.5168299,14.4590152 84.6748597,17.6348485 84.6748597,21.5519697 C84.6748597,25.4690909 81.5160537,28.6449242 77.6199343,28.6449242" id="Fill-9" fill="#FFFFFF"></path>
                    <polygon id="Fill-10" fill="#414649" points="0 42.8308333 49.3930149 42.8308333 49.3930149 0.26530303 0 0.26530303"></polygon>
                    <path d="M35.282,25.0947015 L14.1102388,25.0947015 C12.161403,25.0026258 10.6565075,23.3398 10.7480896,21.3820197 C10.8334627,19.5514288 12.2894627,18.0875803 14.1102388,18.001747 L35.282,18.001747 C37.2308358,17.9096712 38.8839701,19.4226788 38.9755522,21.3820197 C39.0663582,23.3398 37.5622388,25.0026258 35.613403,25.0947015 C35.503194,25.0993833 35.3929851,25.0993833 35.282,25.0947015" id="Fill-11" fill="#7E8589"></path>
                    <polygon id="Fill-12" fill="#7E8589" points="0 205.992197 156 205.992197 156 191.806288 0 191.806288"></polygon>
                    <path d="M98.7843224,127.961738 C92.9424716,127.961738 88.2058149,123.200329 88.2058149,117.326208 L88.2058149,117.302798 C88.2058149,123.181602 83.4660537,127.946132 77.6195463,127.946132 C71.7730388,127.946132 67.0332776,123.181602 67.0332776,117.302798 C67.191606,123.179261 62.5814567,128.07098 56.7372776,128.230162 C50.8930985,128.389344 46.0260537,123.754344 45.8685015,117.878662 C45.8630687,117.686708 45.8630687,117.494753 45.8685015,117.302798 C45.8685015,134.932965 60.0839045,149.224995 77.6195463,149.224995 C95.1551881,149.224995 109.370594,134.932965 109.370594,117.302798 C109.375248,123.17692 104.642472,127.94223 98.8006209,127.946132 L98.7843224,127.946132 L98.7843224,127.961738 Z" id="Fill-13" fill="#A4D3F3"></path>
                    <path d="M70.5643207,103.132652 C70.5689672,105.093553 68.9918925,106.686932 67.0407284,106.690841 C65.0903403,106.694735 63.5062806,105.109159 63.5016167,103.148258 C63.4977433,101.187356 65.075594,99.5947576 67.025206,99.5900758 L67.0329672,99.5900758 C68.9802507,99.5900758 70.5604299,101.174871 70.5643207,103.132652" id="Fill-14" fill="#A4D3F3"></path>
                </g>
            </g>
        </g>
    </g>
</svg>