<?xml version="1.0" encoding="UTF-8"?>
<svg width="49px" height="49px" viewBox="0 0 49 49" version="1.1" xmlns="http://www.w3.org/2000/svg" xmlns:xlink="http://www.w3.org/1999/xlink">
    <!-- Generator: Sketch 63.1 (92452) - https://sketch.com -->
    <title>sun (1)</title>
    <desc>Created with Sketch.</desc>
    <g id="Page-1" stroke="none" stroke-width="1" fill="none" fill-rule="evenodd">
        <g id="Mit-vandforbrug-Copy-3" transform="translate(-394.000000, -256.000000)" fill-rule="nonzero">
            <g id="sun-(1)" transform="translate(394.000000, 256.000000)">
                <circle id="Oval" fill="#FCC632" cx="24.5" cy="24.5" r="13.5"></circle>
                <g id="Group" fill="#FBB728">
                    <path d="M24.483334,6.38696538 C25.0712342,6.38696538 25.5478615,5.91033809 25.5478615,5.32243788 L25.5478615,1.06452749 C25.5478615,0.476627291 25.0712342,0 24.483334,0 C23.8954338,0 23.4188065,0.476627291 23.4188065,1.06452749 L23.4188065,5.32253768 C23.4189063,5.91033809 23.8954338,6.38696538 24.483334,6.38696538 Z" id="Path"></path>
                    <path d="M24.483334,42.5798024 C23.8954338,42.5798024 23.4188065,43.0564297 23.4188065,43.6443299 L23.4188065,47.9022403 C23.4188065,48.4901405 23.8954338,48.9667678 24.483334,48.9667678 C25.0712342,48.9667678 25.5478615,48.4901405 25.5478615,47.9022403 L25.5478615,43.6442301 C25.5478615,43.0563299 25.0712342,42.5798024 24.483334,42.5798024 Z" id="Path"></path>
                    <path d="M47.9022403,23.4189063 L43.6442301,23.4189063 C43.0563299,23.4189063 42.5797026,23.8955336 42.5797026,24.4834338 C42.5797026,25.071334 43.0563299,25.5479613 43.6442301,25.5479613 L47.9022403,25.5479613 C48.4901405,25.5479613 48.9667678,25.071334 48.9667678,24.4834338 C48.9667678,23.8954338 48.4901405,23.4189063 47.9022403,23.4189063 Z" id="Path"></path>
                    <path d="M6.38696538,24.483334 C6.38696538,23.8954338 5.91033809,23.4188065 5.32243788,23.4188065 L1.06452749,23.4188065 C0.476627291,23.4189063 0,23.8954338 0,24.483334 C0,25.0712342 0.476627291,25.5478615 1.06452749,25.5478615 L5.32253768,25.5478615 C5.91033809,25.5478615 6.38696538,25.0712342 6.38696538,24.483334 Z" id="Path"></path>
                    <path d="M13.9810672,8.42231161 C14.1715784,8.75233809 14.5239593,8.95532383 14.9050815,8.95453279 C15.092,8.95522403 15.2758248,8.90602444 15.4372953,8.8119165 C15.9464562,8.5179165 16.1208004,7.86694501 15.8269002,7.35778411 L13.697945,3.67040937 C13.4006517,3.1632444 12.7484827,2.99309165 12.2413177,3.29038493 C11.7388432,3.58488391 11.5663951,4.22857026 11.8543075,4.73483707 L13.9810672,8.42231161 Z" id="Path"></path>
                    <path d="M34.9857006,40.5444562 C34.6883075,40.0372912 34.0361385,39.8672383 33.5289735,40.1646314 C33.0266986,40.4592301 32.8542505,41.1027169 33.1419633,41.6089837 L35.2709185,45.2963585 C35.4614297,45.6263849 35.8138106,45.8293707 36.1949328,45.8285796 C36.3818513,45.8292709 36.5656762,45.7800713 36.7271466,45.6859633 C37.2363075,45.3919633 37.4106517,44.7409919 37.1167515,44.231831 L34.9857006,40.5444562 Z" id="Path"></path>
                    <path d="M41.0766701,15.9674134 C41.2635886,15.968112 41.4474134,15.9189124 41.6088839,15.8248045 L45.2962587,13.6958493 C45.8171955,13.4233055 46.0185845,12.7801181 45.7460407,12.2591813 C45.4734969,11.7382444 44.8303096,11.5368554 44.3093727,11.8093992 C44.2828269,11.8232709 44.2569796,11.8382403 44.2317312,11.8543075 L40.5443564,13.9832627 C40.0351955,14.2772627 39.8608513,14.928334 40.1547515,15.4373951 C40.3448635,15.766723 40.6962464,15.969609 41.0765703,15.969609 L41.0765703,15.9674134 L41.0766701,15.9674134 Z" id="Path"></path>
                    <path d="M7.35778411,33.1419633 L3.67040937,35.2709185 C3.16124847,35.5649185 2.98690428,36.21589 3.28080448,36.7250509 C3.4709165,37.0543788 3.82229939,37.2572721 4.20262322,37.2572721 C4.38954175,37.2579633 4.5733666,37.2087637 4.73483707,37.1146558 L8.42221181,34.9857006 C8.94314868,34.7131568 9.14453768,34.0699695 8.87199389,33.5490326 C8.5994501,33.0280957 7.95626273,32.8267067 7.43532587,33.0992505 C7.40878004,33.1131222 7.38293279,33.1280916 7.35768432,33.1441589 L7.35778411,33.1419633 Z" id="Path"></path>
                    <path d="M3.67040937,13.6957495 L7.35778411,15.8247047 C7.5187556,15.9184134 7.70168228,15.9677128 7.88790224,15.9673161 C8.47580244,15.9673161 8.95232994,15.4906864 8.95232994,14.9027862 C8.95232994,14.5225621 8.74944399,14.1711792 8.42011609,13.9809674 L4.73274134,11.8520122 C4.23655397,11.5366558 3.57869654,11.6831568 3.26334012,12.1792444 C2.94798371,12.675332 3.09448473,13.3332892 3.5905723,13.6486456 C3.61582077,13.6647128 3.64166802,13.6796823 3.66821385,13.693554 L3.67040937,13.6957495 Z" id="Path"></path>
                    <path d="M45.2963585,35.2709185 L41.6089837,33.1419633 C41.1127963,32.8266069 40.4549389,32.9731079 40.1395825,33.4691955 C39.8242261,33.9652831 39.9707271,34.6232403 40.4668147,34.9385967 C40.4920631,34.954664 40.5180102,34.9696334 40.5444562,34.9835051 L44.231831,37.1124603 C44.3934012,37.2065682 44.5771263,37.2557678 44.7640448,37.2550766 C45.351945,37.2550766 45.8284725,36.778442 45.8284725,36.1905418 C45.8284725,35.8102179 45.6255866,35.458835 45.2962587,35.268723 L45.2962587,35.2709185 L45.2963585,35.2709185 Z" id="Path"></path>
                    <path d="M33.5315682,8.8119165 C33.6931385,8.90602444 33.8768635,8.95522403 34.0637821,8.95453279 C34.4448045,8.95532383 34.7971853,8.75223829 34.9877963,8.42231161 L37.1167515,4.73493686 C37.4072587,4.22387984 37.2284236,3.57400611 36.7173666,3.28349898 C36.2110998,2.99578615 35.567613,3.16813442 35.2730143,3.67050916 L33.1440591,7.35788391 C32.8497597,7.86634623 33.0232057,8.51721792 33.5315682,8.8119165 Z" id="Path"></path>
                    <path d="M15.4351996,40.1548513 C14.9260387,39.8609511 14.2750672,40.0352953 13.9810672,40.5444562 L11.852112,44.231831 C11.5582118,44.7409919 11.732556,45.3919633 12.2417169,45.6859633 C12.4032872,45.7800713 12.5870122,45.8292709 12.7739308,45.8285796 C13.1549532,45.8293707 13.5074338,45.6262851 13.697945,45.2963585 L15.8269002,41.6089837 C16.1203014,41.0995234 15.9452587,40.4486517 15.4357984,40.1552505 C15.4355988,40.1550509 15.4353992,40.1549511 15.4351996,40.1548513 Z" id="Path"></path>
                </g>
            </g>
        </g>
    </g>
</svg>