<?xml version="1.0" encoding="UTF-8"?>
<svg width="51px" height="42px" viewBox="0 0 51 42" version="1.1" xmlns="http://www.w3.org/2000/svg" xmlns:xlink="http://www.w3.org/1999/xlink">
    <!-- Generator: Sketch 63.1 (92452) - https://sketch.com -->
    <title>Group 5</title>
    <desc>Created with Sketch.</desc>
    <g id="Page-1" stroke="none" stroke-width="1" fill="none" fill-rule="evenodd">
        <g id="Mit-vandforbrug-Copy-3" transform="translate(-773.000000, -263.000000)">
            <g id="Group-5" transform="translate(773.000000, 263.000000)">
                <g id="sun-(1)-copy" transform="translate(12.000000, 0.000000)" fill-rule="nonzero">
                    <circle id="Oval" fill="#FCC632" cx="19.5" cy="19.5" r="10.5"></circle>
                    <g id="Group" fill="#FBB728">
                        <path d="M19.4867352,5.08350305 C19.9546558,5.08350305 20.3340122,4.70414664 20.3340122,4.23622607 L20.3340122,0.847276986 C20.3340122,0.379356415 19.9546558,0 19.4867352,0 C19.0188147,0 18.6394582,0.379356415 18.6394582,0.847276986 L18.6394582,4.2363055 C18.6395377,4.70414664 19.0188147,5.08350305 19.4867352,5.08350305 Z" id="Path"></path>
                        <path d="M19.4867352,33.8900468 C19.0188147,33.8900468 18.6394582,34.2694033 18.6394582,34.7373238 L18.6394582,38.1262729 C18.6394582,38.5941935 19.0188147,38.9735499 19.4867352,38.9735499 C19.9546558,38.9735499 20.3340122,38.5941935 20.3340122,38.1262729 L20.3340122,34.7372444 C20.3340122,34.2693238 19.9546558,33.8900468 19.4867352,33.8900468 Z" id="Path"></path>
                        <path d="M38.1262729,18.6395377 L34.7372444,18.6395377 C34.2693238,18.6395377 33.8899674,19.0188941 33.8899674,19.4868147 C33.8899674,19.9547352 34.2693238,20.3340916 34.7372444,20.3340916 L38.1262729,20.3340916 C38.5941935,20.3340916 38.9735499,19.9547352 38.9735499,19.4868147 C38.9735499,19.0188147 38.5941935,18.6395377 38.1262729,18.6395377 Z" id="Path"></path>
                        <path d="M5.08350305,19.4867352 C5.08350305,19.0188147 4.70414664,18.6394582 4.23622607,18.6394582 L0.847276986,18.6394582 C0.379356415,18.6395377 0,19.0188147 0,19.4867352 C0,19.9546558 0.379356415,20.3340122 0.847276986,20.3340122 L4.2363055,20.3340122 C4.70414664,20.3340122 5.08350305,19.9546558 5.08350305,19.4867352 Z" id="Path"></path>
                        <path d="M11.1277882,6.70347251 C11.2794196,6.96614664 11.5598859,7.12770672 11.8632281,7.12707712 C12.012,7.12762729 12.1583096,7.08846843 12.2868269,7.01356619 C12.6920774,6.77956619 12.8308411,6.26144603 12.5969206,5.85619552 L10.902446,2.92134623 C10.6658248,2.51768432 10.1467515,2.38225662 9.74308961,2.6188778 C9.3431609,2.85327495 9.20590631,3.36559674 9.4350611,3.76854379 L11.1277882,6.70347251 Z" id="Path"></path>
                        <path d="M27.8457617,32.2700774 C27.6090611,31.8664155 27.0899878,31.7310672 26.6863259,31.9677678 C26.286556,32.2022444 26.1493014,32.7144073 26.3782974,33.1173544 L28.0727719,36.0522037 C28.2244033,36.3148778 28.5048697,36.4764379 28.8082118,36.4758083 C28.9569837,36.4763585 29.1032933,36.4371996 29.2318106,36.3622974 C29.6370611,36.1282974 29.7758248,35.6101772 29.5419043,35.2049267 L27.8457617,32.2700774 Z" id="Path"></path>
                        <path d="M32.6936762,12.7087576 C32.8424481,12.7093136 32.9887576,12.6701548 33.1172749,12.5952525 L36.0521242,10.900778 C36.4667475,10.6838554 36.6270367,10.1719308 36.4101141,9.75730754 C36.1931914,9.34268432 35.6812668,9.18239511 35.2666436,9.39931772 C35.2455153,9.41035845 35.224943,9.42227291 35.2048473,9.4350611 L32.269998,11.1295356 C31.8647475,11.3635356 31.7259837,11.8817352 31.9599043,12.2869063 C32.1112179,12.5490244 32.39089,12.7105051 32.6935967,12.7105051 L32.6935967,12.7087576 L32.6936762,12.7087576 Z" id="Path"></path>
                        <path d="M5.85619552,26.3782974 L2.92134623,28.0727719 C2.51609572,28.3067719 2.37733198,28.8248921 2.61125255,29.2301426 C2.76256619,29.4922607 3.04223829,29.6537472 3.34494501,29.6537472 C3.4937169,29.6542974 3.64002648,29.6151385 3.76854379,29.5402363 L6.70339308,27.8457617 C7.11801629,27.6288391 7.2783055,27.1169145 7.06138289,26.7022912 C6.84446029,26.287668 6.33253564,26.1273788 5.91791242,26.3443014 C5.89678411,26.3553422 5.87621181,26.3672566 5.85611609,26.3800448 L5.85619552,26.3782974 Z" id="Path"></path>
                        <path d="M2.92134623,10.9006986 L5.85619552,12.5951731 C5.98431568,12.6697576 6.12991039,12.7089959 6.27812627,12.7086801 C6.74604684,12.7086801 7.12532383,12.3293218 7.12532383,11.8614012 C7.12532383,11.5587739 6.96384318,11.2791018 6.70172505,11.1277088 L3.76687576,9.43323422 C3.37195112,9.18223625 2.84835031,9.2988391 2.59735234,9.69368432 C2.34635438,10.0885295 2.46295723,10.6122098 2.85780244,10.8632077 C2.87789817,10.8759959 2.89847047,10.8879104 2.91959878,10.8989511 L2.92134623,10.9006986 Z" id="Path"></path>
                        <path d="M36.0522037,28.0727719 L33.1173544,26.3782974 C32.7224297,26.1272994 32.1988289,26.2439022 31.947831,26.6387475 C31.696833,27.0335927 31.8134358,27.5572729 32.2082811,27.8082709 C32.2283768,27.8210591 32.2490285,27.8329735 32.2700774,27.8440143 L35.2049267,29.5384888 C35.3335234,29.613391 35.4797536,29.6525499 35.6285255,29.6519997 C36.096446,29.6519997 36.475723,29.2726375 36.475723,28.8047169 C36.475723,28.5020102 36.3142424,28.2223381 36.0521242,28.0710244 L36.0521242,28.0727719 L36.0522037,28.0727719 Z" id="Path"></path>
                        <path d="M26.688391,7.01356619 C26.8169878,7.08846843 26.9632179,7.12762729 27.1119898,7.12707712 C27.4152525,7.12770672 27.6957189,6.96606721 27.8474297,6.70347251 L29.5419043,3.76862322 C29.7731242,3.36186354 29.6307862,2.84461711 29.2240265,2.61339715 C28.8210794,2.38440122 28.3089165,2.52157637 28.0744399,2.92142566 L26.3799654,5.85627495 C26.1457271,6.26096945 26.283776,6.77901018 26.688391,7.01356619 Z" id="Path"></path>
                        <path d="M12.2851589,31.9599837 C11.8799084,31.7260631 11.3617882,31.8648269 11.1277882,32.2700774 L9.43331365,35.2049267 C9.19939308,35.6101772 9.33815682,36.1282974 9.74340733,36.3622974 C9.87200407,36.4371996 10.0182342,36.4763585 10.1670061,36.4758083 C10.4702688,36.4764379 10.7508147,36.3147984 10.902446,36.0522037 L12.5969206,33.1173544 C12.830444,32.7118656 12.6911242,32.1938248 12.2856354,31.9603014 C12.2854766,31.9601426 12.2853177,31.9600631 12.2851589,31.9599837 Z" id="Path"></path>
                    </g>
                </g>
                <g id="partly_cloudy_day" transform="translate(0.000000, 15.000000)">
                    <g id="cloud">
                        <g id="path-5-link" fill="#000000" fill-rule="nonzero">
                            <path d="M33.8642474,26.817576 C38.2698083,26.817576 41.858433,23.2198364 41.858433,18.94421 C41.858433,15.3464705 39.4283799,12.3397911 36.0107804,11.3600015 C35.9202865,8.1537795 33.1892787,5.59437799 29.8256435,5.59437799 C28.8480598,5.59437799 27.926931,5.82498695 27.1045984,6.21212335 C25.6500534,2.90035497 22.2357748,0.579528164 18.2552863,0.579528164 C13.9148976,0.579528164 10.2490624,3.34643801 9.06226339,7.14053373 C3.9319206,7.73517837 0,11.8670227 0,16.9499798 C0,22.2754946 4.26110272,26.817576 9.88459601,26.817576 L33.8642474,26.817576 Z" id="path-5"></path>
                        </g>
                        <g id="path-5-link" fill="#FFFFFF">
                            <path d="M33.8642474,26.817576 C38.2698083,26.817576 41.858433,23.2198364 41.858433,18.94421 C41.858433,15.3464705 39.4283799,12.3397911 36.0107804,11.3600015 C35.9202865,8.1537795 33.1892787,5.59437799 29.8256435,5.59437799 C28.8480598,5.59437799 27.926931,5.82498695 27.1045984,6.21212335 C25.6500534,2.90035497 22.2357748,0.579528164 18.2552863,0.579528164 C13.9148976,0.579528164 10.2490624,3.34643801 9.06226339,7.14053373 C3.9319206,7.73517837 0,11.8670227 0,16.9499798 C0,22.2754946 4.26110272,26.817576 9.88459601,26.817576 L33.8642474,26.817576 Z" id="path-5"></path>
                        </g>
                    </g>
                </g>
            </g>
        </g>
    </g>
</svg>