<svg id="Layer_1" data-name="Layer 1" xmlns="http://www.w3.org/2000/svg" xmlns:xlink="http://www.w3.org/1999/xlink" viewBox="0 0 799 144"><defs><clipPath id="clip-path"><path d="M55.83,76.61l-13.7-4.8c-3.9-1.4-5.1-2.9-5.1-4.9v-1.1c0-2.7,2.1-3.8,6.3-3.8h19.3c1.4,0,1.8-.5,1.8-1.7v-8.1c0-1-.4-1.4-1.7-1.7a99.05,99.05,0,0,0-16.9-1.4c-15.4,0-24.3,4-24.3,15.4v2c0,6.8,2.5,13.4,10.9,16.3l13.2,4.7c4.7,1.6,5.9,3,5.9,5v1c0,2.9-1.7,3.6-7.4,3.6h-22c-1.3,0-1.8.4-1.8,1.6v8.7c0,1.2.4,1.6,1.8,1.6,5.1.5,12.8,1.1,22.1,1.1,13.6,0,22.8-3.2,22.8-15.6v-1.7C67,85.41,64.93,79.81,55.83,76.61Z" style="fill:none"/></clipPath><clipPath id="clip-path-2"><rect x="-179.67" y="-22.89" width="1200" height="900" style="fill:none"/></clipPath><clipPath id="clip-path-3"><path d="M88.53,74.61c.1-9.4,2.8-11.9,10.8-11.9,7.8,0,10.3,2.5,10.4,11.9ZM99.33,49c-21.6,0-26.8,6-26.8,30.5s5.2,30.5,26.8,30.5c7.1,0,14.8-.3,20.4-1.5,1-.1,1.5-.5,1.5-1.7v-8.9a1.39,1.39,0,0,0-1.6-1.6h-18.9c-9.3,0-11.9-1.7-12.1-11.3h33.6c2.8,0,3.4-.7,3.4-2.9v-3.3C125.53,54.91,120.43,49,99.33,49Z" style="fill:none"/></clipPath><clipPath id="clip-path-5"><path d="M161.93,49c-8,0-18.4.2-25.6,1.8-1.1.2-1.6.3-1.6,1.6v55.3c0,1.2.5,1.7,1.6,1.7H149c1.1,0,1.6-.5,1.6-1.7v-45h9.7c9.8,0,11.4.7,11.4,16v29c0,1.2.5,1.7,1.6,1.7h12.6a1.49,1.49,0,0,0,1.7-1.7V74.61C187.83,52.91,182.43,49,161.93,49Z" style="fill:none"/></clipPath><clipPath id="clip-path-7"><path d="M227.93,96.31h-4.4c-4.7,0-6.3-.9-6.3-5.5V61.61H227c1.2,0,1.8-.5,1.8-1.6v-8.5c0-1.1-.6-1.6-1.8-1.6h-9.8V34.61c0-1.2-.6-1.9-1.7-1.6l-12.6,3.3c-1.1.2-1.5.6-1.5,1.7v11.9h-6.3c-1.2,0-1.7.5-1.7,1.6v8.6c0,1.1.5,1.6,1.7,1.6h6.3v34.5c0,13.5,8.3,13.8,17.5,13.8a43,43,0,0,0,9.1-1,1.72,1.72,0,0,0,1.7-2v-9.1C229.73,96.71,229.23,96.31,227.93,96.31Z" style="fill:none"/></clipPath><clipPath id="clip-path-9"><path d="M252.53,49.61h-12.6a1.39,1.39,0,0,0-1.6,1.6v56.6c0,1.2.5,1.7,1.6,1.7h12.6c1.1,0,1.6-.5,1.6-1.7V51.21A1.43,1.43,0,0,0,252.53,49.61Z" style="fill:none"/></clipPath><clipPath id="clip-path-11"><rect x="238.33" y="25.11" width="15.7" height="15.7" rx="1.3" style="fill:none"/></clipPath><clipPath id="clip-path-13"><path d="M154.83-109.39l-13.7-4.8c-3.9-1.4-5.1-2.9-5.1-4.9v-1.1c0-2.7,2.1-3.8,6.3-3.8h19.3c1.4,0,1.8-.5,1.8-1.7v-8.1c0-1-.4-1.4-1.7-1.7a99.05,99.05,0,0,0-16.9-1.4c-15.4,0-24.3,4-24.3,15.4v2c0,6.8,2.5,13.4,10.9,16.3l13.2,4.7c4.7,1.6,5.9,3,5.9,5v1c0,2.9-1.7,3.6-7.4,3.6h-22c-1.3,0-1.8.4-1.8,1.6v8.7c0,1.2.4,1.6,1.8,1.6,5.1.5,12.8,1.1,22.1,1.1,13.6,0,22.8-3.2,22.8-15.6v-1.7C166-100.59,163.93-106.19,154.83-109.39Z" style="fill:none"/></clipPath><clipPath id="clip-path-14"><path d="M187.53-111.39c.1-9.4,2.8-11.9,10.8-11.9,7.8,0,10.3,2.5,10.4,11.9Zm10.8-25.6c-21.6,0-26.8,6-26.8,30.5s5.2,30.5,26.8,30.5c7.1,0,14.8-.3,20.4-1.5,1-.1,1.5-.5,1.5-1.7v-8.9a1.39,1.39,0,0,0-1.6-1.6h-18.9c-9.3,0-11.9-1.7-12.1-11.3h33.6c2.8,0,3.4-.7,3.4-2.9v-3.3C224.53-131.09,219.43-137,198.33-137Z" style="fill:none"/></clipPath><clipPath id="clip-path-15"><path d="M260.93-137c-8,0-18.4.2-25.6,1.8-1.1.2-1.6.3-1.6,1.6v55.3c0,1.2.5,1.7,1.6,1.7H248c1.1,0,1.6-.5,1.6-1.7v-45h9.7c9.8,0,11.4.7,11.4,16v29c0,1.2.5,1.7,1.6,1.7h12.6a1.49,1.49,0,0,0,1.7-1.7v-33.1C286.83-133.09,281.43-137,260.93-137Z" style="fill:none"/></clipPath><clipPath id="clip-path-16"><path d="M326.93-89.69h-4.4c-4.7,0-6.3-.9-6.3-5.5v-29.2H326c1.2,0,1.8-.5,1.8-1.6v-8.5c0-1.1-.6-1.6-1.8-1.6h-9.8v-15.3c0-1.2-.6-1.9-1.7-1.6l-12.6,3.3c-1.1.2-1.5.6-1.5,1.7v11.9h-6.3c-1.2,0-1.7.5-1.7,1.6v8.6c0,1.1.5,1.6,1.7,1.6h6.3v34.5c0,13.5,8.3,13.8,17.5,13.8a43,43,0,0,0,9.1-1,1.72,1.72,0,0,0,1.7-2v-9.1C328.73-89.29,328.23-89.69,326.93-89.69Z" style="fill:none"/></clipPath><clipPath id="clip-path-17"><path d="M351.53-136.39h-12.6a1.39,1.39,0,0,0-1.6,1.6v56.6c0,1.2.5,1.7,1.6,1.7h12.6c1.1,0,1.6-.5,1.6-1.7v-56.6A1.43,1.43,0,0,0,351.53-136.39Z" style="fill:none"/></clipPath><clipPath id="clip-path-18"><rect x="337.33" y="-160.89" width="15.7" height="15.7" rx="1.3" style="fill:none"/></clipPath><clipPath id="clip-path-19"><path d="M-444.17,74.61l-13.7-4.8c-3.9-1.4-5.1-2.9-5.1-4.9v-1.1c0-2.7,2.1-3.8,6.3-3.8h19.3c1.4,0,1.8-.5,1.8-1.7v-8.1c0-1-.4-1.4-1.7-1.7a99.05,99.05,0,0,0-16.9-1.4c-15.4,0-24.3,4-24.3,15.4v2c0,6.8,2.5,13.4,10.9,16.3l13.2,4.7c4.7,1.6,5.9,3,5.9,5v1c0,2.9-1.7,3.6-7.4,3.6h-22c-1.3,0-1.8.4-1.8,1.6v8.7c0,1.2.4,1.6,1.8,1.6,5.1.5,12.8,1.1,22.1,1.1,13.6,0,22.8-3.2,22.8-15.6v-1.7C-433,83.41-435.07,77.81-444.17,74.61Z" style="fill:none"/></clipPath><clipPath id="clip-path-20"><path d="M-411.47,72.61c.1-9.4,2.8-11.9,10.8-11.9,7.8,0,10.3,2.5,10.4,11.9Zm10.8-25.6c-21.6,0-26.8,6-26.8,30.5s5.2,30.5,26.8,30.5c7.1,0,14.8-.3,20.4-1.5,1-.1,1.5-.5,1.5-1.7v-8.9a1.39,1.39,0,0,0-1.6-1.6h-18.9c-9.3,0-11.9-1.7-12.1-11.3h33.6c2.8,0,3.4-.7,3.4-2.9v-3.3C-374.47,52.91-379.57,47-400.67,47Z" style="fill:none"/></clipPath><clipPath id="clip-path-21"><path d="M-338.07,47c-8,0-18.4.2-25.6,1.8-1.1.2-1.6.3-1.6,1.6v55.3c0,1.2.5,1.7,1.6,1.7H-351c1.1,0,1.6-.5,1.6-1.7v-45h9.7c9.8,0,11.4.7,11.4,16v29c0,1.2.5,1.7,1.6,1.7h12.6a1.49,1.49,0,0,0,1.7-1.7V72.61C-312.17,50.91-317.57,47-338.07,47Z" style="fill:none"/></clipPath><clipPath id="clip-path-22"><path d="M-272.07,94.31h-4.4c-4.7,0-6.3-.9-6.3-5.5V59.61h9.8c1.2,0,1.8-.5,1.8-1.6v-8.5c0-1.1-.6-1.6-1.8-1.6h-9.8V32.61c0-1.2-.6-1.9-1.7-1.6l-12.6,3.3c-1.1.2-1.5.6-1.5,1.7v11.9h-6.3c-1.2,0-1.7.5-1.7,1.6v8.6c0,1.1.5,1.6,1.7,1.6h6.3v34.5c0,13.5,8.3,13.8,17.5,13.8a43,43,0,0,0,9.1-1,1.72,1.72,0,0,0,1.7-2v-9.1C-270.27,94.71-270.77,94.31-272.07,94.31Z" style="fill:none"/></clipPath><clipPath id="clip-path-23"><path d="M-247.47,47.61h-12.6a1.39,1.39,0,0,0-1.6,1.6v56.6c0,1.2.5,1.7,1.6,1.7h12.6c1.1,0,1.6-.5,1.6-1.7V49.21A1.43,1.43,0,0,0-247.47,47.61Z" style="fill:none"/></clipPath><clipPath id="clip-path-24"><rect x="-261.67" y="23.11" width="15.7" height="15.7" rx="1.3" style="fill:none"/></clipPath><clipPath id="clip-path-25"><path d="M-523.17-104.39l-13.7-4.8c-3.9-1.4-5.1-2.9-5.1-4.9v-1.1c0-2.7,2.1-3.8,6.3-3.8h19.3c1.4,0,1.8-.5,1.8-1.7v-8.1c0-1-.4-1.4-1.7-1.7a99.05,99.05,0,0,0-16.9-1.4c-15.4,0-24.3,4-24.3,15.4v2c0,6.8,2.5,13.4,10.9,16.3l13.2,4.7c4.7,1.6,5.9,3,5.9,5v1c0,2.9-1.7,3.6-7.4,3.6h-22c-1.3,0-1.8.4-1.8,1.6v8.7c0,1.2.4,1.6,1.8,1.6,5.1.5,12.8,1.1,22.1,1.1,13.6,0,22.8-3.2,22.8-15.6v-1.7C-512-95.59-514.07-101.19-523.17-104.39Z" style="fill:none"/></clipPath><clipPath id="clip-path-26"><path d="M-490.47-106.39c.1-9.4,2.8-11.9,10.8-11.9,7.8,0,10.3,2.5,10.4,11.9Zm10.8-25.6c-21.6,0-26.8,6-26.8,30.5s5.2,30.5,26.8,30.5c7.1,0,14.8-.3,20.4-1.5,1-.1,1.5-.5,1.5-1.7v-8.9a1.39,1.39,0,0,0-1.6-1.6h-18.9c-9.3,0-11.9-1.7-12.1-11.3h33.6c2.8,0,3.4-.7,3.4-2.9v-3.3C-453.47-126.09-458.57-132-479.67-132Z" style="fill:none"/></clipPath><clipPath id="clip-path-27"><path d="M-417.07-132c-8,0-18.4.2-25.6,1.8-1.1.2-1.6.3-1.6,1.6v55.3c0,1.2.5,1.7,1.6,1.7H-430c1.1,0,1.6-.5,1.6-1.7v-45h9.7c9.8,0,11.4.7,11.4,16v29c0,1.2.5,1.7,1.6,1.7h12.6a1.49,1.49,0,0,0,1.7-1.7v-33.1C-391.17-128.09-396.57-132-417.07-132Z" style="fill:none"/></clipPath><clipPath id="clip-path-28"><path d="M-351.07-84.69h-4.4c-4.7,0-6.3-.9-6.3-5.5v-29.2h9.8c1.2,0,1.8-.5,1.8-1.6v-8.5c0-1.1-.6-1.6-1.8-1.6h-9.8v-15.3c0-1.2-.6-1.9-1.7-1.6l-12.6,3.3c-1.1.2-1.5.6-1.5,1.7v11.9h-6.3c-1.2,0-1.7.5-1.7,1.6v8.6c0,1.1.5,1.6,1.7,1.6h6.3v34.5c0,13.5,8.3,13.8,17.5,13.8a43,43,0,0,0,9.1-1,1.72,1.72,0,0,0,1.7-2v-9.1C-349.27-84.29-349.77-84.69-351.07-84.69Z" style="fill:none"/></clipPath><clipPath id="clip-path-29"><path d="M-326.47-131.39h-12.6a1.39,1.39,0,0,0-1.6,1.6v56.6c0,1.2.5,1.7,1.6,1.7h12.6c1.1,0,1.6-.5,1.6-1.7v-56.6A1.43,1.43,0,0,0-326.47-131.39Z" style="fill:none"/></clipPath><clipPath id="clip-path-30"><rect x="-340.67" y="-155.89" width="15.7" height="15.7" rx="1.3" style="fill:none"/></clipPath><clipPath id="clip-path-31"><path d="M-384.17-270.39l-13.7-4.8c-3.9-1.4-5.1-2.9-5.1-4.9v-1.1c0-2.7,2.1-3.8,6.3-3.8h19.3c1.4,0,1.8-.5,1.8-1.7v-8.1c0-1-.4-1.4-1.7-1.7a99.05,99.05,0,0,0-16.9-1.4c-15.4,0-24.3,4-24.3,15.4v2c0,6.8,2.5,13.4,10.9,16.3l13.2,4.7c4.7,1.6,5.9,3,5.9,5v1c0,2.9-1.7,3.6-7.4,3.6h-22c-1.3,0-1.8.4-1.8,1.6v8.7c0,1.2.4,1.6,1.8,1.6,5.1.5,12.8,1.1,22.1,1.1,13.6,0,22.8-3.2,22.8-15.6v-1.7C-373-261.59-375.07-267.19-384.17-270.39Z" style="fill:none"/></clipPath><clipPath id="clip-path-32"><path d="M-351.47-272.39c.1-9.4,2.8-11.9,10.8-11.9,7.8,0,10.3,2.5,10.4,11.9Zm10.8-25.6c-21.6,0-26.8,6-26.8,30.5s5.2,30.5,26.8,30.5c7.1,0,14.8-.3,20.4-1.5,1-.1,1.5-.5,1.5-1.7v-8.9a1.39,1.39,0,0,0-1.6-1.6h-18.9c-9.3,0-11.9-1.7-12.1-11.3h33.6c2.8,0,3.4-.7,3.4-2.9v-3.3C-314.47-292.09-319.57-298-340.67-298Z" style="fill:none"/></clipPath><clipPath id="clip-path-33"><path d="M-278.07-298c-8,0-18.4.2-25.6,1.8-1.1.2-1.6.3-1.6,1.6v55.3c0,1.2.5,1.7,1.6,1.7H-291c1.1,0,1.6-.5,1.6-1.7v-45h9.7c9.8,0,11.4.7,11.4,16v29c0,1.2.5,1.7,1.6,1.7h12.6a1.49,1.49,0,0,0,1.7-1.7v-33.1C-252.17-294.09-257.57-298-278.07-298Z" style="fill:none"/></clipPath><clipPath id="clip-path-34"><path d="M-212.07-250.69h-4.4c-4.7,0-6.3-.9-6.3-5.5v-29.2h9.8c1.2,0,1.8-.5,1.8-1.6v-8.5c0-1.1-.6-1.6-1.8-1.6h-9.8v-15.3c0-1.2-.6-1.9-1.7-1.6l-12.6,3.3c-1.1.2-1.5.6-1.5,1.7v11.9h-6.3c-1.2,0-1.7.5-1.7,1.6v8.6c0,1.1.5,1.6,1.7,1.6h6.3v34.5c0,13.5,8.3,13.8,17.5,13.8a43,43,0,0,0,9.1-1,1.72,1.72,0,0,0,1.7-2v-9.1C-210.27-250.29-210.77-250.69-212.07-250.69Z" style="fill:none"/></clipPath><clipPath id="clip-path-35"><path d="M-187.47-297.39h-12.6a1.39,1.39,0,0,0-1.6,1.6v56.6c0,1.2.5,1.7,1.6,1.7h12.6c1.1,0,1.6-.5,1.6-1.7v-56.6A1.43,1.43,0,0,0-187.47-297.39Z" style="fill:none"/></clipPath><clipPath id="clip-path-36"><rect x="-201.67" y="-321.89" width="15.7" height="15.7" rx="1.3" style="fill:none"/></clipPath><clipPath id="clip-path-37"><path d="M318.83-275.39l-13.7-4.8c-3.9-1.4-5.1-2.9-5.1-4.9v-1.1c0-2.7,2.1-3.8,6.3-3.8h19.3c1.4,0,1.8-.5,1.8-1.7v-8.1c0-1-.4-1.4-1.7-1.7a99.05,99.05,0,0,0-16.9-1.4c-15.4,0-24.3,4-24.3,15.4v2c0,6.8,2.5,13.4,10.9,16.3l13.2,4.7c4.7,1.6,5.9,3,5.9,5v1c0,2.9-1.7,3.6-7.4,3.6h-22c-1.3,0-1.8.4-1.8,1.6v8.7c0,1.2.4,1.6,1.8,1.6,5.1.5,12.8,1.1,22.1,1.1,13.6,0,22.8-3.2,22.8-15.6v-1.7C330-266.59,327.93-272.19,318.83-275.39Z" style="fill:none"/></clipPath><clipPath id="clip-path-38"><path d="M351.53-277.39c.1-9.4,2.8-11.9,10.8-11.9,7.8,0,10.3,2.5,10.4,11.9Zm10.8-25.6c-21.6,0-26.8,6-26.8,30.5s5.2,30.5,26.8,30.5c7.1,0,14.8-.3,20.4-1.5,1-.1,1.5-.5,1.5-1.7v-8.9a1.39,1.39,0,0,0-1.6-1.6h-18.9c-9.3,0-11.9-1.7-12.1-11.3h33.6c2.8,0,3.4-.7,3.4-2.9v-3.3C388.53-297.09,383.43-303,362.33-303Z" style="fill:none"/></clipPath><clipPath id="clip-path-39"><path d="M424.93-303c-8,0-18.4.2-25.6,1.8-1.1.2-1.6.3-1.6,1.6v55.3c0,1.2.5,1.7,1.6,1.7H412c1.1,0,1.6-.5,1.6-1.7v-45h9.7c9.8,0,11.4.7,11.4,16v29c0,1.2.5,1.7,1.6,1.7h12.6a1.49,1.49,0,0,0,1.7-1.7v-33.1C450.83-299.09,445.43-303,424.93-303Z" style="fill:none"/></clipPath><clipPath id="clip-path-40"><path d="M490.93-255.69h-4.4c-4.7,0-6.3-.9-6.3-5.5v-29.2H490c1.2,0,1.8-.5,1.8-1.6v-8.5c0-1.1-.6-1.6-1.8-1.6h-9.8v-15.3c0-1.2-.6-1.9-1.7-1.6l-12.6,3.3c-1.1.2-1.5.6-1.5,1.7v11.9h-6.3c-1.2,0-1.7.5-1.7,1.6v8.6c0,1.1.5,1.6,1.7,1.6h6.3v34.5c0,13.5,8.3,13.8,17.5,13.8a43,43,0,0,0,9.1-1,1.72,1.72,0,0,0,1.7-2v-9.1C492.73-255.29,492.23-255.69,490.93-255.69Z" style="fill:none"/></clipPath><clipPath id="clip-path-41"><path d="M515.53-302.39h-12.6a1.39,1.39,0,0,0-1.6,1.6v56.6c0,1.2.5,1.7,1.6,1.7h12.6c1.1,0,1.6-.5,1.6-1.7v-56.6A1.43,1.43,0,0,0,515.53-302.39Z" style="fill:none"/></clipPath><clipPath id="clip-path-42"><rect x="501.33" y="-326.89" width="15.7" height="15.7" rx="1.3" style="fill:none"/></clipPath></defs><title>Senti.Waterworks</title><g style="clip-path:url(#clip-path)"><g style="clip-path:url(#clip-path-2)"><rect x="15.33" y="44.11" width="56.7" height="71" style="fill:#c9c9c9"/></g></g><g style="clip-path:url(#clip-path-3)"><g style="clip-path:url(#clip-path-2)"><rect x="67.53" y="44.01" width="63.1" height="71" style="fill:#c9c9c9"/></g></g><g style="clip-path:url(#clip-path-5)"><g style="clip-path:url(#clip-path-2)"><rect x="129.73" y="44.01" width="62.91" height="70.4" style="fill:#c9c9c9"/></g></g><g style="clip-path:url(#clip-path-7)"><g style="clip-path:url(#clip-path-2)"><rect x="188.43" y="27.94" width="46.3" height="87.07" style="fill:#c9c9c9"/></g></g><g style="clip-path:url(#clip-path-9)"><g style="clip-path:url(#clip-path-2)"><rect x="233.33" y="44.61" width="25.8" height="69.9" style="fill:#c9c9c9"/></g></g><g style="clip-path:url(#clip-path-11)"><g style="clip-path:url(#clip-path-2)"><rect x="233.33" y="20.11" width="25.7" height="25.7" style="fill:#ff8e02"/></g></g><path d="M276.26,104.75c0,3-1.55,4.65-4.46,4.65s-4.66-1.65-4.66-4.65,1.65-4.47,4.66-4.47S276.26,101.84,276.26,104.75Z" style="fill:#1c2335"/><path d="M353.38,56.44c1.06,0,1.26.29,1.06,1.36l-8.63,40c-2.33,10.38-3.49,11.64-10.28,11.64-7.18,0-7.67-1.26-10.09-11.64l-7-29.29-7,29.29c-2.42,10.38-2.91,11.64-10.09,11.64-6.88,0-7.95-1.26-10.28-11.64l-8.63-40c-.2-1.07,0-1.36,1.07-1.36h4.94c.68,0,.88.29,1.07,1.36L298,97.28c1.07,4.94,1.74,5.53,3.3,5.53,1.94,0,2.23-.39,3.39-5.53L314,59.83c.3-1.26.59-1.55,1.26-1.55h6.41c.68,0,1,.29,1.26,1.55l9.31,37.45c1.16,5.14,1.45,5.53,3.39,5.53,1.56,0,2.24-.59,3.3-5.53l8.44-39.48c.2-1.07.39-1.36,1.07-1.36Z" style="fill:#1c2335"/><path d="M400.81,71v34a2.2,2.2,0,0,1-1.75,2.52c-3,1.17-12,1.94-20.66,1.94-12.71,0-17.75-3.2-17.75-15.32,0-10.67,5.43-14.36,16.2-14.36h17V72.06c0-7.28-4.85-9.9-14.35-9.9h-13.1c-1,0-1.26-.29-1.26-1.26V58.19c0-1,.29-1.17,1.17-1.36A87.73,87.73,0,0,1,379.47,56C392.85,56,400.81,59.74,400.81,71Zm-24,14.84c-6.31,0-9.22,2.13-9.22,8.25,0,7.17,3.2,9.21,12.32,9.21,3,0,9.8-.19,13.87-1.26V85.83Z" style="fill:#1c2335"/><path d="M422.63,41.79c1-.29,1.46.1,1.46,1.07V56.44h10.76a1.17,1.17,0,0,1,1.27,1.26v3.4c0,.77-.49,1.16-1.27,1.16H424.09v35.5c0,4.37,1.16,5.43,6.3,5.43h5.14c1,0,1.36.29,1.36,1.17v3.3c0,.67-.39,1.06-1.16,1.26a30.21,30.21,0,0,1-5.24.48c-6.69,0-13.48-.48-13.48-10.18v-37h-5.44c-.87,0-1.26-.39-1.26-1.16V57.7a1.13,1.13,0,0,1,1.26-1.26H417V44.12a1.24,1.24,0,0,1,1.06-1.26Z" style="fill:#1c2335"/><path d="M486.07,80.88V83.7c0,1.65-.29,2.42-3,2.42H451.34c.29,13.48,2.72,17.07,14.07,17.07h15.23a1.13,1.13,0,0,1,1.26,1.27v3a1.19,1.19,0,0,1-1.17,1.26c-4.56.49-10.37.68-15.32.68-17.56,0-21.15-5.33-21.15-26.77S447.85,56,465.41,56C482,56,485.88,60.9,486.07,80.88Zm-34.73-1.06H479c-.2-14.36-2.43-17.66-13.58-17.66C453.67,62.16,451.54,65.65,451.34,79.82Z" style="fill:#1c2335"/><path d="M521.76,56.83c.78.29,1.17.58,1.17,1.36V61c0,.87-.49,1.26-1.26,1.16h-8.44c-5.72,0-8.54.88-8.54,5.53v40c0,.87-.39,1.26-1.26,1.26h-4.56a1.13,1.13,0,0,1-1.26-1.26V66.24c0-10.19,9.8-10.28,14.07-10.28C514,56,520.12,56.25,521.76,56.83Z" style="fill:#1c2335"/><path d="M599,56.44c1.06,0,1.26.29,1.06,1.36l-8.63,40c-2.33,10.38-3.49,11.64-10.28,11.64-7.18,0-7.67-1.26-10.09-11.64l-7-29.29-7,29.29c-2.42,10.38-2.91,11.64-10.09,11.64-6.88,0-8-1.26-10.28-11.64l-8.63-40c-.19-1.07,0-1.36,1.07-1.36h4.94c.68,0,.88.29,1.07,1.36l8.44,39.48c1.07,4.94,1.74,5.53,3.3,5.53,1.94,0,2.23-.39,3.39-5.53l9.31-37.45c.29-1.26.59-1.55,1.26-1.55h6.41c.68,0,1,.29,1.26,1.55l9.31,37.45c1.16,5.14,1.45,5.53,3.39,5.53,1.56,0,2.24-.59,3.3-5.53L593,57.8c.2-1.07.39-1.36,1.07-1.36Z" style="fill:#1c2335"/><path d="M651.65,82.63c0,21.44-3.69,26.77-21.63,26.77s-21.54-5.33-21.54-26.77S612.17,56,630,56,651.65,61.29,651.65,82.63Zm-36.18,0c0,16.39,1.94,20.56,14.55,20.56S644.66,99,644.66,82.63,642.72,62.16,630,62.16,615.47,66.24,615.47,82.63Z" style="fill:#1c2335"/><path d="M688.41,56.83c.77.29,1.16.58,1.16,1.36V61c0,.87-.48,1.26-1.26,1.16h-8.44c-5.72,0-8.53.88-8.53,5.53v40c0,.87-.39,1.26-1.26,1.26h-4.56a1.13,1.13,0,0,1-1.26-1.26V66.24c0-10.19,9.79-10.28,14.06-10.28C680.65,56,686.76,56.25,688.41,56.83Z" style="fill:#1c2335"/><path d="M704.22,36.36a1.25,1.25,0,0,1,1.26,1.36V75.35l17.36-18a2.46,2.46,0,0,1,1.94-.87h6.11c1.46,0,1.46.78.68,1.65L713,77l24.54,29.78c.68,1,.78,2.14-1.45,2.14h-4.85a2.52,2.52,0,0,1-1.94-1l-23.77-29.3v28.91c0,1-.48,1.36-1.26,1.36h-4.56c-.78,0-1.26-.39-1.26-1.36V37.72a1.25,1.25,0,0,1,1.26-1.36Z" style="fill:#1c2335"/><path d="M776.58,56.63a1.2,1.2,0,0,1,1.16,1.27v3c0,.87-.38,1.26-1.26,1.26H758.83c-4.37,0-8.44,1.36-8.44,5.82v1.56c0,3.29,1.26,5.72,6.5,7.85l13.68,5.53c8.43,3.4,9.21,8,9.21,13v1.16c0,10.29-5.62,12.32-19,12.32-7,0-15.33-.58-16.88-.77-1-.1-1.16-.59-1.16-1.17v-3c0-.88.39-1.27,1.16-1.27H761c9,0,11.84-1.16,11.84-6.11V95.82c0-3.2-1.17-5.33-5.82-7.27l-14.55-5.82c-7.38-3-9-8-9-13.29V67.3C743.41,56.83,753,56,761.54,56A143.75,143.75,0,0,1,776.58,56.63Z" style="fill:#1c2335"/></svg>