<?xml version="1.0" encoding="UTF-8" standalone="no"?>
<!-- Generator: Adobe Illustrator 22.0.0, SVG Export Plug-In . SVG Version: 6.00 Build 0)  -->

<svg
   xmlns:dc="http://purl.org/dc/elements/1.1/"
   xmlns:cc="http://creativecommons.org/ns#"
   xmlns:rdf="http://www.w3.org/1999/02/22-rdf-syntax-ns#"
   xmlns:svg="http://www.w3.org/2000/svg"
   xmlns="http://www.w3.org/2000/svg"
   xmlns:sodipodi="http://sodipodi.sourceforge.net/DTD/sodipodi-0.dtd"
   xmlns:inkscape="http://www.inkscape.org/namespaces/inkscape"
   version="1.1"
   id="Layer_1"
   x="0px"
   y="0px"
   viewBox="0 0 305 205"
   xml:space="preserve"
   sodipodi:docname="logo-without-dots.svg"
   inkscape:version="0.92.4 5da689c313, 2019-01-14"
   width="305"
   height="205">
	<metadata
   id="metadata38">
		<rdf:RDF>
			<cc:Work
   rdf:about="">
				<dc:format>image/svg+xml</dc:format>
				<dc:type
   rdf:resource="http://purl.org/dc/dcmitype/StillImage" />
			<dc:title></dc:title></cc:Work>
		</rdf:RDF>
	</metadata>
	<defs
   id="defs36" />
	<sodipodi:namedview
   pagecolor="#ffffff"
   bordercolor="#666666"
   borderopacity="1"
   objecttolerance="10"
   gridtolerance="10"
   guidetolerance="10"
   inkscape:pageopacity="0"
   inkscape:pageshadow="2"
   inkscape:window-width="956"
   inkscape:window-height="1021"
   id="namedview34"
   showgrid="false"
   inkscape:zoom="1.0213489"
   inkscape:cx="227.35356"
   inkscape:cy="146.22784"
   inkscape:window-x="960"
   inkscape:window-y="0"
   inkscape:window-maximized="0"
   inkscape:current-layer="Layer_1" />
	<style
   type="text/css"
   id="style2">
	.text{fill:#C9C9C9;}

	.bullet{
		fill:#C9C9C9;
	}
	</style>
	
	
	
	
	
	
	
	
	<path
   style="fill:#c9c9c9"
   inkscape:connector-curvature="0"
   id="path19"
   d="m 46.2,108.2 -17.8,-6.3 c -5,-1.8 -6.7,-3.8 -6.7,-6.4 v -1.4 c 0,-3.5 2.8,-5 8.2,-5 H 55 c 1.8,0 2.4,-0.7 2.4,-2.2 V 76.3 c 0,-1.3 -0.6,-1.8 -2.2,-2.2 -8.1,-1.4 -16,-1.8 -22,-1.8 -20,0 -31.6,5.2 -31.6,20 V 95 c 0,8.9 3.2,17.4 14.2,21.2 l 17.1,6.1 c 6.1,2.1 7.7,3.9 7.7,6.5 v 1.3 c 0,3.8 -2.2,4.7 -9.6,4.7 H 2.4 c -1.7,0 -2.4,0.6 -2.4,2.1 v 11.3 c 0,1.5 0.6,2.1 2.4,2.1 6.7,0.7 16.7,1.4 28.8,1.4 17.7,0 29.7,-4.2 29.7,-20.3 v -2.2 c -0.1,-9.6 -2.9,-16.8 -14.7,-21 z"
   class="text" />
	<path
   style="fill:#c9c9c9"
   inkscape:connector-curvature="0"
   id="path21"
   d="M 102.9,72.3 C 74.8,72.3 68,80.1 68,112 c 0,31.7 6.8,39.7 34.9,39.7 9.2,0 19.2,-0.4 26.6,-1.9 1.3,-0.1 1.9,-0.7 1.9,-2.2 V 136 c 0,-1.4 -0.7,-2.1 -2.1,-2.1 h -24.6 c -12.1,0 -15.5,-2.2 -15.7,-14.8 h 43.7 c 3.6,0 4.5,-1 4.5,-3.8 V 111 C 137,79.9 130.3,72.3 102.9,72.3 Z M 88.8,105.5 C 88.9,93.2 92.4,90 102.9,90 c 10.2,0 13.4,3.2 13.5,15.5 z"
   class="text" />
	<path
   style="fill:#c9c9c9"
   inkscape:connector-curvature="0"
   id="path23"
   d="m 184.3,72.3 c -10.4,0 -23.9,0.3 -33.3,2.4 -1.4,0.3 -2.1,0.4 -2.1,2.1 v 72 c 0,1.5 0.7,2.2 2.1,2.2 h 16.6 c 1.4,0 2.1,-0.7 2.1,-2.2 V 90.1 h 12.7 c 12.8,0 14.9,1 14.9,20.9 v 37.7 c 0,1.5 0.7,2.2 2.1,2.2 h 16.4 c 1.4,0 2.2,-0.7 2.2,-2.2 v -43 c 0,-28.4 -7,-33.4 -33.7,-33.4 z"
   class="text" />
	<path
   style="fill:#c9c9c9"
   inkscape:connector-curvature="0"
   id="path25"
   d="m 270.2,133.8 h -5.7 c -6.1,0 -8.2,-1.1 -8.2,-7.1 v -38 h 12.8 c 1.5,0 2.4,-0.7 2.4,-2.1 V 75.5 c 0,-1.4 -0.8,-2.1 -2.4,-2.1 H 256.3 V 53.5 c 0,-1.5 -0.8,-2.5 -2.2,-2.1 l -16.4,4.3 c -1.4,0.3 -1.9,0.8 -1.9,2.2 v 15.5 h -8.2 c -1.5,0 -2.2,0.7 -2.2,2.1 v 11.1 c 0,1.4 0.7,2.1 2.2,2.1 h 8.2 v 45 c 0,17.5 10.9,18 22.8,18 3.1,0 7,-0.3 11.8,-1.3 1.5,-0.3 2.2,-1 2.2,-2.6 V 136 c 0,-1.6 -0.7,-2.2 -2.4,-2.2 z"
   class="text" />
	<path
   style="fill:#c9c9c9"
   inkscape:connector-curvature="0"
   id="path27"
   d="m 302.2,73 h -16.4 c -1.4,0 -2.1,0.7 -2.1,2.1 v 73.6 c 0,1.5 0.7,2.2 2.1,2.2 h 16.4 c 1.4,0 2.1,-0.7 2.1,-2.2 V 75.1 c 0,-1.4 -0.7,-2.1 -2.1,-2.1 z"
   class="text" />
	<path
   style="fill:#ff8e02;fill-opacity:1"
   inkscape:connector-curvature="0"
   id="path29"
   d="m 285.5,61.6 h 17.1 c 1,0 1.7,-0.8 1.7,-1.7 V 42.8 c 0,-1 -0.8,-1.7 -1.7,-1.7 h -17.1 c -1,0 -1.7,0.8 -1.7,1.7 v 17.1 c -0.1,0.9 0.7,1.7 1.7,1.7 z"
   class="text" />
</svg>